<svg width="1280" height="832" viewBox="0 0 1280 832" fill="none" xmlns="http://www.w3.org/2000/svg">
<g clip-path="url(#clip0_618_303)">
<rect width="1280" height="832" fill="#F9FAFB"/>
<g filter="url(#filter0_dd_618_303)">
<rect width="287" height="832" fill="white"/>
<path d="M30.4189 141.005C30.4189 136.863 33.7768 133.505 37.9189 133.505H224.919C229.061 133.505 232.419 136.863 232.419 141.005V167.005C232.419 171.147 229.061 174.505 224.919 174.505H37.9189C33.7768 174.505 30.4189 171.147 30.4189 167.005V141.005Z" fill="white"/>
<path d="M30.4189 141.005C30.4189 136.863 33.7768 133.505 37.9189 133.505H224.919C229.061 133.505 232.419 136.863 232.419 141.005V167.005C232.419 171.147 229.061 174.505 224.919 174.505H37.9189C33.7768 174.505 30.4189 171.147 30.4189 167.005V141.005Z" stroke="#E5E7EB"/>
<path d="M44.8053 160.005H43.328L47.6008 148.369H49.0553L53.328 160.005H51.8508L48.3735 150.21H48.2826L44.8053 160.005ZM45.3508 155.46H51.3053V156.71H45.3508V155.46ZM58.2542 160.187C57.5269 160.187 56.8849 160.003 56.328 159.636C55.7712 159.265 55.3356 158.742 55.0212 158.068C54.7068 157.39 54.5496 156.589 54.5496 155.664C54.5496 154.748 54.7068 153.952 55.0212 153.278C55.3356 152.604 55.7731 152.083 56.3337 151.715C56.8943 151.348 57.5421 151.164 58.2769 151.164C58.8451 151.164 59.2939 151.259 59.6235 151.448C59.9568 151.634 60.2106 151.846 60.3849 152.085C60.5629 152.32 60.7011 152.513 60.7996 152.664H60.9133V148.369H62.2542V160.005H60.9587V158.664H60.7996C60.7011 158.823 60.561 159.024 60.3792 159.267C60.1974 159.505 59.9379 159.719 59.6008 159.909C59.2636 160.094 58.8148 160.187 58.2542 160.187ZM58.436 158.983C58.9739 158.983 59.4284 158.842 59.7996 158.562C60.1708 158.278 60.453 157.886 60.6462 157.386C60.8394 156.882 60.936 156.301 60.936 155.642C60.936 154.99 60.8413 154.42 60.6519 153.931C60.4625 153.439 60.1822 153.056 59.811 152.784C59.4398 152.507 58.9814 152.369 58.436 152.369C57.8678 152.369 57.3943 152.515 57.0155 152.806C56.6405 153.094 56.3583 153.486 56.1689 153.983C55.9833 154.475 55.8905 155.028 55.8905 155.642C55.8905 156.263 55.9852 156.827 56.1746 157.335C56.3678 157.839 56.6519 158.24 57.0269 158.539C57.4057 158.835 57.8754 158.983 58.436 158.983ZM68.1917 160.187C67.4644 160.187 66.8224 160.003 66.2655 159.636C65.7087 159.265 65.2731 158.742 64.9587 158.068C64.6443 157.39 64.4871 156.589 64.4871 155.664C64.4871 154.748 64.6443 153.952 64.9587 153.278C65.2731 152.604 65.7106 152.083 66.2712 151.715C66.8318 151.348 67.4796 151.164 68.2144 151.164C68.7826 151.164 69.2314 151.259 69.561 151.448C69.8943 151.634 70.1481 151.846 70.3224 152.085C70.5004 152.32 70.6386 152.513 70.7371 152.664H70.8508V148.369H72.1917V160.005H70.8962V158.664H70.7371C70.6386 158.823 70.4985 159.024 70.3167 159.267C70.1349 159.505 69.8754 159.719 69.5383 159.909C69.2011 160.094 68.7523 160.187 68.1917 160.187ZM68.3735 158.983C68.9114 158.983 69.3659 158.842 69.7371 158.562C70.1083 158.278 70.3905 157.886 70.5837 157.386C70.7769 156.882 70.8735 156.301 70.8735 155.642C70.8735 154.99 70.7788 154.42 70.5894 153.931C70.4 153.439 70.1197 153.056 69.7485 152.784C69.3773 152.507 68.9189 152.369 68.3735 152.369C67.8053 152.369 67.3318 152.515 66.953 152.806C66.578 153.094 66.2958 153.486 66.1064 153.983C65.9208 154.475 65.828 155.028 65.828 155.642C65.828 156.263 65.9227 156.827 66.1121 157.335C66.3053 157.839 66.5894 158.24 66.9644 158.539C67.3432 158.835 67.8129 158.983 68.3735 158.983ZM80.6746 154.755V160.005H79.3337V151.278H80.6292V152.642H80.7428C80.9474 152.198 81.258 151.842 81.6746 151.573C82.0913 151.301 82.6292 151.164 83.2883 151.164C83.8792 151.164 84.3962 151.286 84.8394 151.528C85.2826 151.767 85.6273 152.13 85.8735 152.619C86.1197 153.104 86.2428 153.717 86.2428 154.46V160.005H84.9019V154.551C84.9019 153.865 84.7239 153.331 84.3678 152.948C84.0117 152.562 83.5231 152.369 82.9019 152.369C82.4739 152.369 82.0913 152.462 81.7542 152.647C81.4208 152.833 81.1576 153.104 80.9644 153.46C80.7712 153.816 80.6746 154.248 80.6746 154.755ZM92.3522 160.187C91.5113 160.187 90.7859 160.001 90.176 159.63C89.57 159.255 89.1022 158.733 88.7726 158.062C88.4469 157.388 88.284 156.604 88.284 155.71C88.284 154.816 88.4469 154.028 88.7726 153.346C89.1022 152.661 89.5605 152.126 90.1476 151.744C90.7385 151.358 91.4279 151.164 92.2158 151.164C92.6704 151.164 93.1192 151.24 93.5624 151.392C94.0056 151.543 94.409 151.789 94.7726 152.13C95.1363 152.467 95.426 152.914 95.642 153.471C95.8579 154.028 95.9658 154.714 95.9658 155.528V156.096H89.2385V154.937H94.6022C94.6022 154.445 94.5037 154.005 94.3067 153.619C94.1135 153.233 93.837 152.928 93.4772 152.704C93.1211 152.481 92.7007 152.369 92.2158 152.369C91.6817 152.369 91.2196 152.501 90.8295 152.767C90.4431 153.028 90.1457 153.369 89.9374 153.789C89.7291 154.21 89.6249 154.661 89.6249 155.142V155.914C89.6249 156.573 89.7385 157.132 89.9658 157.59C90.1969 158.045 90.517 158.392 90.926 158.63C91.3351 158.865 91.8105 158.983 92.3522 158.983C92.7045 158.983 93.0226 158.933 93.3067 158.835C93.5946 158.733 93.8427 158.581 94.051 158.38C94.2594 158.176 94.4204 157.922 94.534 157.619L95.8295 157.983C95.6931 158.422 95.4639 158.808 95.142 159.142C94.82 159.471 94.4223 159.729 93.9488 159.914C93.4753 160.096 92.9431 160.187 92.3522 160.187ZM99.9829 160.005L97.3238 151.278H98.7329L100.619 157.96H100.71L102.574 151.278H104.006L105.847 157.937H105.937L107.824 151.278H109.233L106.574 160.005H105.256L103.347 153.301H103.21L101.301 160.005H99.9829ZM119.051 160.187C118.233 160.187 117.528 159.994 116.937 159.608C116.347 159.221 115.892 158.689 115.574 158.011C115.256 157.333 115.097 156.558 115.097 155.687C115.097 154.801 115.259 154.019 115.585 153.34C115.915 152.659 116.373 152.126 116.96 151.744C117.551 151.358 118.24 151.164 119.028 151.164C119.642 151.164 120.195 151.278 120.687 151.505C121.18 151.733 121.583 152.051 121.898 152.46C122.212 152.869 122.407 153.346 122.483 153.892H121.142C121.04 153.494 120.812 153.142 120.46 152.835C120.112 152.524 119.642 152.369 119.051 152.369C118.528 152.369 118.07 152.505 117.676 152.778C117.286 153.047 116.981 153.428 116.761 153.92C116.545 154.409 116.437 154.983 116.437 155.642C116.437 156.316 116.543 156.903 116.756 157.403C116.972 157.903 117.275 158.291 117.665 158.568C118.059 158.844 118.521 158.983 119.051 158.983C119.4 158.983 119.716 158.922 120 158.801C120.284 158.679 120.525 158.505 120.722 158.278C120.918 158.051 121.059 157.778 121.142 157.46H122.483C122.407 157.975 122.22 158.439 121.92 158.852C121.625 159.261 121.233 159.587 120.744 159.829C120.259 160.068 119.695 160.187 119.051 160.187ZM127.011 160.21C126.458 160.21 125.956 160.106 125.506 159.897C125.055 159.685 124.697 159.38 124.432 158.983C124.167 158.581 124.034 158.096 124.034 157.528C124.034 157.028 124.132 156.623 124.329 156.312C124.526 155.998 124.79 155.751 125.119 155.573C125.449 155.395 125.812 155.263 126.21 155.176C126.612 155.085 127.015 155.013 127.42 154.96C127.951 154.892 128.381 154.84 128.71 154.806C129.043 154.769 129.286 154.706 129.437 154.619C129.593 154.532 129.67 154.38 129.67 154.164V154.119C129.67 153.558 129.517 153.123 129.21 152.812C128.907 152.501 128.447 152.346 127.829 152.346C127.189 152.346 126.687 152.486 126.324 152.767C125.96 153.047 125.704 153.346 125.557 153.664L124.284 153.21C124.511 152.679 124.814 152.267 125.193 151.971C125.576 151.672 125.992 151.464 126.443 151.346C126.898 151.225 127.345 151.164 127.784 151.164C128.064 151.164 128.386 151.198 128.75 151.267C129.117 151.331 129.472 151.465 129.812 151.67C130.157 151.875 130.443 152.183 130.67 152.596C130.898 153.009 131.011 153.562 131.011 154.255V160.005H129.67V158.823H129.602C129.511 159.013 129.36 159.215 129.148 159.431C128.936 159.647 128.653 159.831 128.301 159.983C127.949 160.134 127.519 160.21 127.011 160.21ZM127.216 159.005C127.746 159.005 128.193 158.901 128.557 158.693C128.924 158.484 129.201 158.215 129.386 157.886C129.576 157.556 129.67 157.21 129.67 156.846V155.619C129.614 155.687 129.489 155.75 129.295 155.806C129.106 155.859 128.886 155.907 128.636 155.948C128.39 155.986 128.15 156.02 127.915 156.051C127.684 156.077 127.496 156.1 127.352 156.119C127.004 156.164 126.678 156.238 126.375 156.34C126.076 156.439 125.833 156.589 125.648 156.789C125.466 156.986 125.375 157.255 125.375 157.596C125.375 158.062 125.547 158.414 125.892 158.653C126.24 158.888 126.682 159.005 127.216 159.005ZM137.254 151.278V152.414H132.731V151.278H137.254ZM134.05 149.187H135.391V157.505C135.391 157.884 135.445 158.168 135.555 158.358C135.669 158.543 135.813 158.668 135.987 158.733C136.165 158.793 136.353 158.823 136.55 158.823C136.697 158.823 136.819 158.816 136.913 158.801C137.008 158.782 137.084 158.767 137.141 158.755L137.413 159.96C137.322 159.994 137.195 160.028 137.033 160.062C136.87 160.1 136.663 160.119 136.413 160.119C136.034 160.119 135.663 160.037 135.3 159.875C134.94 159.712 134.641 159.464 134.402 159.13C134.167 158.797 134.05 158.376 134.05 157.869V149.187ZM142.837 160.187C141.996 160.187 141.27 160.001 140.66 159.63C140.054 159.255 139.587 158.733 139.257 158.062C138.931 157.388 138.768 156.604 138.768 155.71C138.768 154.816 138.931 154.028 139.257 153.346C139.587 152.661 140.045 152.126 140.632 151.744C141.223 151.358 141.912 151.164 142.7 151.164C143.155 151.164 143.604 151.24 144.047 151.392C144.49 151.543 144.893 151.789 145.257 152.13C145.621 152.467 145.91 152.914 146.126 153.471C146.342 154.028 146.45 154.714 146.45 155.528V156.096H139.723V154.937H145.087C145.087 154.445 144.988 154.005 144.791 153.619C144.598 153.233 144.321 152.928 143.962 152.704C143.605 152.481 143.185 152.369 142.7 152.369C142.166 152.369 141.704 152.501 141.314 152.767C140.927 153.028 140.63 153.369 140.422 153.789C140.213 154.21 140.109 154.661 140.109 155.142V155.914C140.109 156.573 140.223 157.132 140.45 157.59C140.681 158.045 141.001 158.392 141.41 158.63C141.82 158.865 142.295 158.983 142.837 158.983C143.189 158.983 143.507 158.933 143.791 158.835C144.079 158.733 144.327 158.581 144.535 158.38C144.744 158.176 144.905 157.922 145.018 157.619L146.314 157.983C146.177 158.422 145.948 158.808 145.626 159.142C145.304 159.471 144.907 159.729 144.433 159.914C143.96 160.096 143.427 160.187 142.837 160.187ZM152.013 163.46C151.365 163.46 150.808 163.376 150.342 163.21C149.876 163.047 149.488 162.831 149.177 162.562C148.871 162.297 148.626 162.013 148.445 161.71L149.513 160.96C149.634 161.119 149.787 161.301 149.973 161.505C150.159 161.714 150.412 161.894 150.734 162.045C151.06 162.2 151.486 162.278 152.013 162.278C152.717 162.278 153.299 162.108 153.757 161.767C154.215 161.426 154.445 160.892 154.445 160.164V158.392H154.331C154.232 158.551 154.092 158.748 153.91 158.983C153.732 159.214 153.475 159.42 153.138 159.602C152.804 159.78 152.354 159.869 151.785 159.869C151.081 159.869 150.448 159.702 149.888 159.369C149.331 159.036 148.89 158.551 148.564 157.914C148.242 157.278 148.081 156.505 148.081 155.596C148.081 154.702 148.238 153.924 148.552 153.261C148.867 152.594 149.304 152.079 149.865 151.715C150.426 151.348 151.073 151.164 151.808 151.164C152.376 151.164 152.827 151.259 153.16 151.448C153.498 151.634 153.755 151.846 153.933 152.085C154.115 152.32 154.255 152.513 154.354 152.664H154.49V151.278H155.785V160.255C155.785 161.005 155.615 161.615 155.274 162.085C154.937 162.558 154.482 162.905 153.91 163.125C153.342 163.348 152.71 163.46 152.013 163.46ZM151.967 158.664C152.505 158.664 152.96 158.541 153.331 158.295C153.702 158.049 153.984 157.695 154.177 157.233C154.371 156.77 154.467 156.217 154.467 155.573C154.467 154.945 154.373 154.39 154.183 153.909C153.994 153.428 153.713 153.051 153.342 152.778C152.971 152.505 152.513 152.369 151.967 152.369C151.399 152.369 150.926 152.513 150.547 152.801C150.172 153.089 149.89 153.475 149.7 153.96C149.515 154.445 149.422 154.983 149.422 155.573C149.422 156.179 149.516 156.715 149.706 157.181C149.899 157.644 150.183 158.007 150.558 158.272C150.937 158.534 151.407 158.664 151.967 158.664ZM161.785 160.187C160.998 160.187 160.306 160 159.712 159.625C159.121 159.25 158.659 158.725 158.325 158.051C157.996 157.376 157.831 156.589 157.831 155.687C157.831 154.778 157.996 153.984 158.325 153.306C158.659 152.628 159.121 152.102 159.712 151.727C160.306 151.352 160.998 151.164 161.785 151.164C162.573 151.164 163.263 151.352 163.854 151.727C164.448 152.102 164.91 152.628 165.24 153.306C165.573 153.984 165.74 154.778 165.74 155.687C165.74 156.589 165.573 157.376 165.24 158.051C164.91 158.725 164.448 159.25 163.854 159.625C163.263 160 162.573 160.187 161.785 160.187ZM161.785 158.983C162.384 158.983 162.876 158.829 163.263 158.522C163.649 158.215 163.935 157.812 164.121 157.312C164.306 156.812 164.399 156.27 164.399 155.687C164.399 155.104 164.306 154.56 164.121 154.056C163.935 153.553 163.649 153.145 163.263 152.835C162.876 152.524 162.384 152.369 161.785 152.369C161.187 152.369 160.695 152.524 160.308 152.835C159.922 153.145 159.636 153.553 159.45 154.056C159.265 154.56 159.172 155.104 159.172 155.687C159.172 156.27 159.265 156.812 159.45 157.312C159.636 157.812 159.922 158.215 160.308 158.522C160.695 158.829 161.187 158.983 161.785 158.983ZM167.787 160.005V151.278H169.082V152.596H169.173C169.332 152.164 169.62 151.814 170.037 151.545C170.454 151.276 170.923 151.142 171.446 151.142C171.544 151.142 171.668 151.144 171.815 151.147C171.963 151.151 172.075 151.157 172.15 151.164V152.528C172.105 152.517 172.001 152.5 171.838 152.477C171.679 152.45 171.51 152.437 171.332 152.437C170.908 152.437 170.529 152.526 170.196 152.704C169.866 152.878 169.605 153.121 169.412 153.431C169.222 153.738 169.128 154.089 169.128 154.483V160.005H167.787ZM174.869 163.278C174.642 163.278 174.439 163.259 174.261 163.221C174.083 163.187 173.96 163.153 173.892 163.119L174.233 161.937C174.559 162.02 174.847 162.051 175.097 162.028C175.347 162.005 175.568 161.894 175.761 161.693C175.958 161.496 176.138 161.176 176.301 160.733L176.551 160.051L173.324 151.278H174.778L177.187 158.233H177.278L179.687 151.278H181.142L177.437 161.278C177.271 161.729 177.064 162.102 176.818 162.397C176.572 162.697 176.286 162.918 175.96 163.062C175.638 163.206 175.275 163.278 174.869 163.278Z" fill="#CCCCCC"/>
<path d="M240.919 141.005C240.919 136.587 244.501 133.005 248.919 133.005H268.919C273.337 133.005 276.919 136.587 276.919 141.005V167.005C276.919 171.424 273.337 175.005 268.919 175.005H248.919C244.501 175.005 240.919 171.424 240.919 167.005V141.005Z" fill="#3B82F6"/>
<path d="M253.085 154.005H264.752" stroke="white" stroke-width="2" stroke-linecap="round" stroke-linejoin="round"/>
<path d="M258.919 148.172V159.839" stroke="white" stroke-width="2" stroke-linecap="round" stroke-linejoin="round"/>
<path d="M47.1977 223.5V213.609H48.3955V222.437H52.9932V223.5H47.1977ZM57.7068 223.655C57.0371 223.655 56.4495 223.495 55.944 223.176C55.4418 222.858 55.049 222.412 54.7656 221.839C54.4855 221.266 54.3455 220.596 54.3455 219.83C54.3455 219.057 54.4855 218.382 54.7656 217.806C55.049 217.23 55.4418 216.782 55.944 216.463C56.4495 216.145 57.0371 215.985 57.7068 215.985C58.3765 215.985 58.9625 216.145 59.4648 216.463C59.9703 216.782 60.3631 217.23 60.6432 217.806C60.9265 218.382 61.0682 219.057 61.0682 219.83C61.0682 220.596 60.9265 221.266 60.6432 221.839C60.3631 222.412 59.9703 222.858 59.4648 223.176C58.9625 223.495 58.3765 223.655 57.7068 223.655ZM57.7068 222.631C58.2155 222.631 58.6341 222.5 58.9625 222.239C59.2909 221.979 59.534 221.636 59.6918 221.211C59.8495 220.786 59.9284 220.325 59.9284 219.83C59.9284 219.334 59.8495 218.872 59.6918 218.443C59.534 218.015 59.2909 217.669 58.9625 217.405C58.6341 217.141 58.2155 217.009 57.7068 217.009C57.1981 217.009 56.7795 217.141 56.4511 217.405C56.1227 217.669 55.8796 218.015 55.7219 218.443C55.5641 218.872 55.4852 219.334 55.4852 219.83C55.4852 220.325 55.5641 220.786 55.7219 221.211C55.8796 221.636 56.1227 221.979 56.4511 222.239C56.7795 222.5 57.1981 222.631 57.7068 222.631ZM65.8023 226.436C65.2518 226.436 64.7785 226.366 64.3825 226.224C63.9864 226.085 63.6564 225.902 63.3924 225.673C63.1316 225.448 62.9239 225.206 62.7694 224.949L63.6773 224.311C63.7804 224.447 63.9108 224.601 64.0685 224.775C64.2263 224.952 64.442 225.105 64.7157 225.234C64.9926 225.366 65.3548 225.432 65.8023 225.432C66.4012 225.432 66.8954 225.287 67.285 224.997C67.6746 224.707 67.8694 224.253 67.8694 223.635V222.128H67.7728C67.6891 222.264 67.57 222.431 67.4154 222.631C67.2641 222.827 67.0451 223.003 66.7586 223.157C66.4753 223.308 66.0921 223.384 65.6092 223.384C65.0103 223.384 64.4726 223.242 63.9961 222.959C63.5228 222.676 63.1477 222.264 62.8708 221.723C62.5971 221.182 62.4603 220.525 62.4603 219.752C62.4603 218.992 62.5939 218.331 62.8612 217.767C63.1284 217.201 63.5003 216.763 63.9768 216.454C64.4533 216.141 65.0039 215.985 65.6285 215.985C66.1114 215.985 66.4946 216.066 66.7779 216.227C67.0645 216.384 67.2834 216.565 67.4347 216.768C67.5893 216.967 67.7084 217.131 67.7921 217.26H67.908V216.082H69.0092V223.713C69.0092 224.35 68.8643 224.868 68.5745 225.268C68.288 225.67 67.9016 225.965 67.4154 226.151C66.9325 226.341 66.3948 226.436 65.8023 226.436ZM65.7637 222.36C66.2209 222.36 66.6073 222.256 66.9228 222.046C67.2383 221.837 67.4782 221.536 67.6424 221.143C67.8066 220.75 67.8887 220.28 67.8887 219.733C67.8887 219.198 67.8082 218.727 67.6472 218.318C67.4862 217.909 67.248 217.589 66.9325 217.357C66.6169 217.125 66.2273 217.009 65.7637 217.009C65.2808 217.009 64.8783 217.131 64.5563 217.376C64.2376 217.621 63.9977 217.949 63.8367 218.361C63.679 218.773 63.6001 219.231 63.6001 219.733C63.6001 220.248 63.6806 220.704 63.8415 221.1C64.0058 221.493 64.2472 221.802 64.566 222.027C64.888 222.249 65.2872 222.36 65.7637 222.36ZM71.0955 223.5V216.082H72.2353V223.5H71.0955ZM71.6751 214.845C71.4529 214.845 71.2613 214.77 71.1004 214.618C70.9426 214.467 70.8637 214.285 70.8637 214.073C70.8637 213.86 70.9426 213.678 71.1004 213.527C71.2613 213.376 71.4529 213.3 71.6751 213.3C71.8972 213.3 72.0872 213.376 72.245 213.527C72.4059 213.678 72.4864 213.86 72.4864 214.073C72.4864 214.285 72.4059 214.467 72.245 214.618C72.0872 214.77 71.8972 214.845 71.6751 214.845ZM75.4626 219.037V223.5H74.3229V216.082H75.424V217.241H75.5206C75.6945 216.864 75.9585 216.562 76.3126 216.333C76.6668 216.101 77.124 215.985 77.6842 215.985C78.1865 215.985 78.626 216.088 79.0027 216.294C79.3794 216.497 79.6724 216.806 79.8817 217.222C80.091 217.634 80.1956 218.155 80.1956 218.786V223.5H79.0558V218.864C79.0558 218.281 78.9045 217.827 78.6018 217.502C78.2992 217.173 77.8839 217.009 77.3558 217.009C76.992 217.009 76.6668 217.088 76.3803 217.246C76.0969 217.404 75.8732 217.634 75.7089 217.936C75.5447 218.239 75.4626 218.606 75.4626 219.037Z" fill="black"/>
<path d="M30 255C30 250.582 33.5817 247 38 247H270C274.418 247 278 250.582 278 255V279C278 283.418 274.418 287 270 287H38C33.5817 287 30 283.418 30 279V255Z" fill="#EFF6FF"/>
<path d="M47.1167 271.005V261.114H50.4587C51.2314 261.114 51.8657 261.246 52.3616 261.51C52.8574 261.771 53.2244 262.13 53.4627 262.587C53.701 263.045 53.8201 263.565 53.8201 264.147C53.8201 264.73 53.701 265.247 53.4627 265.698C53.2244 266.148 52.859 266.503 52.3664 266.76C51.8738 267.014 51.2443 267.142 50.478 267.142H47.7735V266.06H50.4394C50.9674 266.06 51.3924 265.983 51.7144 265.828C52.0396 265.673 52.2746 265.454 52.4195 265.171C52.5676 264.885 52.6417 264.543 52.6417 264.147C52.6417 263.751 52.5676 263.405 52.4195 263.109C52.2714 262.813 52.0348 262.584 51.7096 262.423C51.3844 262.259 50.9546 262.177 50.4201 262.177H48.3144V271.005H47.1167ZM51.7724 266.562L54.2064 271.005H52.8155L50.4201 266.562H51.7724ZM58.6919 271.16C57.9771 271.16 57.3605 271.002 56.8422 270.686C56.327 270.368 55.9294 269.923 55.6493 269.354C55.3724 268.78 55.2339 268.114 55.2339 267.354C55.2339 266.594 55.3724 265.925 55.6493 265.345C55.9294 264.762 56.319 264.308 56.818 263.983C57.3203 263.655 57.9063 263.49 58.576 263.49C58.9623 263.49 59.3439 263.555 59.7206 263.684C60.0973 263.812 60.4402 264.022 60.7493 264.311C61.0584 264.598 61.3047 264.978 61.4882 265.451C61.6717 265.925 61.7635 266.507 61.7635 267.2V267.683H56.0453V266.697H60.6044C60.6044 266.279 60.5207 265.905 60.3533 265.577C60.189 265.248 59.954 264.989 59.6481 264.799C59.3455 264.609 58.9881 264.514 58.576 264.514C58.122 264.514 57.7292 264.627 57.3976 264.852C57.0692 265.075 56.8164 265.364 56.6393 265.722C56.4622 266.079 56.3737 266.462 56.3737 266.871V267.528C56.3737 268.088 56.4703 268.563 56.6635 268.953C56.8599 269.339 57.1319 269.634 57.4797 269.836C57.8274 270.036 58.2315 270.136 58.6919 270.136C58.9913 270.136 59.2618 270.094 59.5033 270.01C59.7479 269.923 59.9588 269.795 60.1359 269.624C60.313 269.45 60.4498 269.234 60.5464 268.977L61.6476 269.286C61.5317 269.659 61.3369 269.988 61.0632 270.271C60.7895 270.551 60.4515 270.77 60.049 270.928C59.6465 271.083 59.1942 271.16 58.6919 271.16ZM66.4916 273.942C65.941 273.942 65.4677 273.871 65.0717 273.729C64.6757 273.591 64.3457 273.407 64.0817 273.179C63.8209 272.953 63.6132 272.712 63.4586 272.454L64.3666 271.817C64.4696 271.952 64.6 272.106 64.7578 272.28C64.9156 272.457 65.1313 272.61 65.405 272.739C65.6818 272.871 66.0441 272.937 66.4916 272.937C67.0905 272.937 67.5847 272.792 67.9743 272.502C68.3639 272.213 68.5586 271.759 68.5586 271.14V269.634H68.4621C68.3783 269.769 68.2592 269.936 68.1047 270.136C67.9533 270.332 67.7344 270.508 67.4479 270.662C67.1645 270.814 66.7814 270.889 66.2984 270.889C65.6996 270.889 65.1619 270.748 64.6854 270.464C64.2121 270.181 63.837 269.769 63.5601 269.228C63.2864 268.687 63.1496 268.03 63.1496 267.258C63.1496 266.498 63.2832 265.836 63.5504 265.273C63.8176 264.706 64.1895 264.268 64.666 263.959C65.1425 263.647 65.6931 263.49 66.3177 263.49C66.8007 263.49 67.1838 263.571 67.4672 263.732C67.7537 263.89 67.9727 264.07 68.124 264.273C68.2785 264.472 68.3977 264.637 68.4814 264.765H68.5973V263.587H69.6984V271.218C69.6984 271.855 69.5535 272.374 69.2638 272.773C68.9772 273.175 68.5908 273.47 68.1047 273.657C67.6217 273.847 67.084 273.942 66.4916 273.942ZM66.453 269.865C66.9102 269.865 67.2965 269.761 67.6121 269.552C67.9276 269.342 68.1675 269.041 68.3317 268.648C68.4959 268.256 68.578 267.786 68.578 267.238C68.578 266.704 68.4975 266.232 68.3365 265.823C68.1755 265.414 67.9372 265.094 67.6217 264.862C67.3062 264.63 66.9166 264.514 66.453 264.514C65.97 264.514 65.5675 264.637 65.2456 264.881C64.9268 265.126 64.687 265.454 64.526 265.867C64.3682 266.279 64.2893 266.736 64.2893 267.238C64.2893 267.753 64.3698 268.209 64.5308 268.605C64.695 268.998 64.9365 269.307 65.2552 269.532C65.5772 269.754 65.9765 269.865 66.453 269.865ZM71.7848 271.005V263.587H72.9246V271.005H71.7848ZM72.3643 262.351C72.1422 262.351 71.9506 262.275 71.7896 262.124C71.6318 261.972 71.553 261.79 71.553 261.578C71.553 261.365 71.6318 261.184 71.7896 261.032C71.9506 260.881 72.1422 260.805 72.3643 260.805C72.5865 260.805 72.7765 260.881 72.9342 261.032C73.0952 261.184 73.1757 261.365 73.1757 261.578C73.1757 261.79 73.0952 261.972 72.9342 262.124C72.7765 262.275 72.5865 262.351 72.3643 262.351ZM80.2667 265.248L79.2428 265.538C79.1784 265.368 79.0834 265.202 78.9579 265.041C78.8355 264.877 78.6681 264.741 78.4556 264.635C78.2431 264.529 77.971 264.476 77.6394 264.476C77.1854 264.476 76.8071 264.58 76.5045 264.79C76.205 264.996 76.0553 265.258 76.0553 265.577C76.0553 265.86 76.1583 266.084 76.3644 266.248C76.5705 266.412 76.8924 266.549 77.3303 266.659L78.4314 266.929C79.0947 267.09 79.5889 267.336 79.9141 267.668C80.2393 267.996 80.4019 268.42 80.4019 268.938C80.4019 269.363 80.2796 269.743 80.0349 270.078C79.7934 270.413 79.4553 270.677 79.0207 270.87C78.586 271.063 78.0805 271.16 77.5042 271.16C76.7475 271.16 76.1213 270.996 75.6255 270.667C75.1296 270.339 74.8157 269.859 74.6837 269.228L75.7655 268.958C75.8686 269.357 76.0634 269.656 76.3499 269.856C76.6397 270.055 77.018 270.155 77.4849 270.155C78.0161 270.155 78.4379 270.043 78.7502 269.817C79.0657 269.589 79.2235 269.315 79.2235 268.996C79.2235 268.739 79.1333 268.523 78.953 268.349C78.7727 268.172 78.4958 268.04 78.1224 267.953L76.886 267.663C76.2066 267.502 75.7076 267.253 75.3888 266.915C75.0733 266.573 74.9155 266.147 74.9155 265.635C74.9155 265.216 75.0331 264.846 75.2681 264.524C75.5064 264.202 75.8299 263.949 76.2388 263.766C76.651 263.582 77.1178 263.49 77.6394 263.49C78.3735 263.49 78.9498 263.651 79.3684 263.973C79.7902 264.295 80.0896 264.72 80.2667 265.248ZM85.3437 263.587V264.553H81.4994V263.587H85.3437ZM82.6199 261.81H83.7596V268.88C83.7596 269.202 83.8063 269.444 83.8997 269.605C83.9963 269.762 84.1186 269.869 84.2667 269.923C84.4181 269.975 84.5774 270.001 84.7449 270.001C84.8704 270.001 84.9735 269.994 85.054 269.981C85.1345 269.965 85.1988 269.952 85.2471 269.943L85.479 270.967C85.4017 270.996 85.2938 271.025 85.1554 271.054C85.0169 271.086 84.8415 271.102 84.629 271.102C84.307 271.102 83.9915 271.033 83.6824 270.894C83.3765 270.756 83.1221 270.545 82.9193 270.261C82.7197 269.978 82.6199 269.621 82.6199 269.189V261.81ZM87.0582 271.005V263.587H88.1594V264.708H88.2366C88.3719 264.34 88.6166 264.043 88.9707 263.814C89.3249 263.585 89.7241 263.471 90.1685 263.471C90.2522 263.471 90.3568 263.473 90.4824 263.476C90.6079 263.479 90.7029 263.484 90.7673 263.49V264.65C90.7287 264.64 90.6401 264.625 90.5017 264.606C90.3665 264.584 90.2232 264.572 90.0719 264.572C89.7113 264.572 89.3893 264.648 89.106 264.799C88.8258 264.947 88.6037 265.153 88.4395 265.417C88.2785 265.678 88.198 265.976 88.198 266.311V271.005H87.0582ZM94.3013 271.179C93.8313 271.179 93.4046 271.091 93.0215 270.913C92.6384 270.733 92.3341 270.474 92.1087 270.136C91.8833 269.795 91.7706 269.383 91.7706 268.9C91.7706 268.475 91.8544 268.13 92.0218 267.866C92.1892 267.599 92.413 267.39 92.6931 267.238C92.9732 267.087 93.2823 266.974 93.6204 266.9C93.9617 266.823 94.3046 266.762 94.6491 266.717C95.0998 266.659 95.4653 266.615 95.7454 266.586C96.0287 266.554 96.2348 266.501 96.3635 266.427C96.4956 266.353 96.5616 266.224 96.5616 266.04V266.002C96.5616 265.525 96.4312 265.155 96.1704 264.891C95.9128 264.627 95.5216 264.495 94.9968 264.495C94.4527 264.495 94.026 264.614 93.717 264.852C93.4079 265.091 93.1905 265.345 93.065 265.615L91.9831 265.229C92.1763 264.778 92.4339 264.427 92.7559 264.176C93.0811 263.922 93.4352 263.745 93.8184 263.645C94.2047 263.542 94.5847 263.49 94.9582 263.49C95.1964 263.49 95.4701 263.519 95.7792 263.577C96.0915 263.632 96.3925 263.746 96.6823 263.92C96.9753 264.094 97.2184 264.357 97.4116 264.708C97.6047 265.058 97.7013 265.529 97.7013 266.118V271.005H96.5616V270.001H96.5036C96.4263 270.162 96.2975 270.334 96.1172 270.517C95.9369 270.701 95.6971 270.857 95.3976 270.986C95.0982 271.115 94.7328 271.179 94.3013 271.179ZM94.4752 270.155C94.926 270.155 95.3059 270.067 95.615 269.89C95.9273 269.713 96.1623 269.484 96.3201 269.204C96.4811 268.924 96.5616 268.629 96.5616 268.32V267.277C96.5133 267.335 96.407 267.388 96.2428 267.436C96.0818 267.481 95.8951 267.522 95.6826 267.557C95.4733 267.589 95.2689 267.618 95.0692 267.644C94.8728 267.666 94.7135 267.686 94.5911 267.702C94.2949 267.74 94.018 267.803 93.7604 267.89C93.5061 267.974 93.3 268.101 93.1422 268.272C92.9877 268.439 92.9104 268.668 92.9104 268.958C92.9104 269.354 93.0569 269.653 93.3499 269.856C93.6461 270.055 94.0212 270.155 94.4752 270.155ZM103.008 263.587V264.553H99.1635V263.587H103.008ZM100.284 261.81H101.424V268.88C101.424 269.202 101.47 269.444 101.564 269.605C101.66 269.762 101.783 269.869 101.931 269.923C102.082 269.975 102.242 270.001 102.409 270.001C102.535 270.001 102.638 269.994 102.718 269.981C102.799 269.965 102.863 269.952 102.911 269.943L103.143 270.967C103.066 270.996 102.958 271.025 102.819 271.054C102.681 271.086 102.506 271.102 102.293 271.102C101.971 271.102 101.656 271.033 101.346 270.894C101.041 270.756 100.786 270.545 100.583 270.261C100.384 269.978 100.284 269.621 100.284 269.189V261.81ZM104.722 271.005V263.587H105.862V271.005H104.722ZM105.302 262.351C105.08 262.351 104.888 262.275 104.727 262.124C104.569 261.972 104.49 261.79 104.49 261.578C104.49 261.365 104.569 261.184 104.727 261.032C104.888 260.881 105.08 260.805 105.302 260.805C105.524 260.805 105.714 260.881 105.872 261.032C106.033 261.184 106.113 261.365 106.113 261.578C106.113 261.79 106.033 261.972 105.872 262.124C105.714 262.275 105.524 262.351 105.302 262.351ZM110.963 271.16C110.294 271.16 109.706 271 109.2 270.682C108.698 270.363 108.305 269.917 108.022 269.344C107.742 268.771 107.602 268.101 107.602 267.335C107.602 266.562 107.742 265.888 108.022 265.311C108.305 264.735 108.698 264.287 109.2 263.969C109.706 263.65 110.294 263.49 110.963 263.49C111.633 263.49 112.219 263.65 112.721 263.969C113.227 264.287 113.62 264.735 113.9 265.311C114.183 265.888 114.325 266.562 114.325 267.335C114.325 268.101 114.183 268.771 113.9 269.344C113.62 269.917 113.227 270.363 112.721 270.682C112.219 271 111.633 271.16 110.963 271.16ZM110.963 270.136C111.472 270.136 111.891 270.006 112.219 269.745C112.547 269.484 112.79 269.141 112.948 268.716C113.106 268.291 113.185 267.831 113.185 267.335C113.185 266.839 113.106 266.377 112.948 265.949C112.79 265.52 112.547 265.174 112.219 264.91C111.891 264.646 111.472 264.514 110.963 264.514C110.455 264.514 110.036 264.646 109.708 264.91C109.379 265.174 109.136 265.52 108.978 265.949C108.821 266.377 108.742 266.839 108.742 267.335C108.742 267.831 108.821 268.291 108.978 268.716C109.136 269.141 109.379 269.484 109.708 269.745C110.036 270.006 110.455 270.136 110.963 270.136ZM117.204 266.543V271.005H116.064V263.587H117.166V264.746H117.262C117.436 264.369 117.7 264.067 118.054 263.838C118.408 263.606 118.866 263.49 119.426 263.49C119.928 263.49 120.368 263.594 120.744 263.8C121.121 264.002 121.414 264.311 121.623 264.727C121.833 265.139 121.937 265.661 121.937 266.292V271.005H120.797V266.369C120.797 265.786 120.646 265.332 120.343 265.007C120.041 264.679 119.625 264.514 119.097 264.514C118.734 264.514 118.408 264.593 118.122 264.751C117.839 264.909 117.615 265.139 117.451 265.442C117.286 265.744 117.204 266.111 117.204 266.543Z" fill="#2563EB"/>
<mask id="path-10-inside-1_618_303" fill="white">
<path d="M-1 759H286V832H-1V759Z"/>
</mask>
<path d="M-1 760H286V758H-1V760Z" fill="#E5E7EB" mask="url(#path-10-inside-1_618_303)"/>
<path d="M30.5 803.5H27.1667C26.7246 803.5 26.3007 803.324 25.9882 803.012C25.6756 802.699 25.5 802.275 25.5 801.833V790.167C25.5 789.725 25.6756 789.301 25.9882 788.988C26.3007 788.676 26.7246 788.5 27.1667 788.5H30.5" stroke="#4B5563" stroke-width="2" stroke-linecap="round" stroke-linejoin="round"/>
<path d="M36.3335 800.167L40.5002 796L36.3335 791.833" stroke="#4B5563" stroke-width="2" stroke-linecap="round" stroke-linejoin="round"/>
<path d="M40.5 796H30.5" stroke="#4B5563" stroke-width="2" stroke-linecap="round" stroke-linejoin="round"/>
<path d="M55.0051 800.5V790.609H56.2029V799.437H60.8006V800.5H55.0051ZM65.5142 800.655C64.8445 800.655 64.2569 800.495 63.7515 800.176C63.2492 799.858 62.8564 799.412 62.573 798.839C62.2929 798.266 62.1529 797.596 62.1529 796.83C62.1529 796.057 62.2929 795.382 62.573 794.806C62.8564 794.23 63.2492 793.782 63.7515 793.463C64.2569 793.145 64.8445 792.985 65.5142 792.985C66.1839 792.985 66.7699 793.145 67.2722 793.463C67.7777 793.782 68.1705 794.23 68.4506 794.806C68.7339 795.382 68.8756 796.057 68.8756 796.83C68.8756 797.596 68.7339 798.266 68.4506 798.839C68.1705 799.412 67.7777 799.858 67.2722 800.176C66.7699 800.495 66.1839 800.655 65.5142 800.655ZM65.5142 799.631C66.023 799.631 66.4415 799.5 66.7699 799.239C67.0983 798.979 67.3414 798.636 67.4992 798.211C67.6569 797.786 67.7358 797.325 67.7358 796.83C67.7358 796.334 67.6569 795.872 67.4992 795.443C67.3414 795.015 67.0983 794.669 66.7699 794.405C66.4415 794.141 66.023 794.009 65.5142 794.009C65.0055 794.009 64.587 794.141 64.2586 794.405C63.9301 794.669 63.6871 795.015 63.5293 795.443C63.3715 795.872 63.2926 796.334 63.2926 796.83C63.2926 797.325 63.3715 797.786 63.5293 798.211C63.6871 798.636 63.9301 798.979 64.2586 799.239C64.587 799.5 65.0055 799.631 65.5142 799.631ZM73.6098 803.436C73.0592 803.436 72.5859 803.366 72.1899 803.224C71.7939 803.085 71.4638 802.902 71.1998 802.673C70.939 802.448 70.7314 802.206 70.5768 801.949L71.4848 801.311C71.5878 801.447 71.7182 801.601 71.876 801.775C72.0337 801.952 72.2494 802.105 72.5231 802.234C72.8 802.366 73.1622 802.432 73.6098 802.432C74.2086 802.432 74.7029 802.287 75.0924 801.997C75.482 801.707 75.6768 801.253 75.6768 800.635V799.128H75.5802C75.4965 799.264 75.3774 799.431 75.2228 799.631C75.0715 799.827 74.8526 800.003 74.566 800.157C74.2827 800.308 73.8995 800.384 73.4166 800.384C72.8177 800.384 72.28 800.242 71.8035 799.959C71.3302 799.676 70.9551 799.264 70.6782 798.723C70.4046 798.182 70.2677 797.525 70.2677 796.752C70.2677 795.992 70.4013 795.331 70.6686 794.767C70.9358 794.201 71.3077 793.763 71.7842 793.454C72.2607 793.141 72.8113 792.985 73.4359 792.985C73.9189 792.985 74.302 793.066 74.5853 793.227C74.8719 793.384 75.0908 793.565 75.2422 793.768C75.3967 793.967 75.5158 794.131 75.5995 794.26H75.7154V793.082H76.8166V800.713C76.8166 801.35 76.6717 801.868 76.3819 802.268C76.0954 802.67 75.709 802.965 75.2228 803.151C74.7399 803.341 74.2022 803.436 73.6098 803.436ZM73.5711 799.36C74.0283 799.36 74.4147 799.256 74.7302 799.046C75.0458 798.837 75.2856 798.536 75.4498 798.143C75.614 797.75 75.6961 797.28 75.6961 796.733C75.6961 796.198 75.6156 795.727 75.4547 795.318C75.2937 794.909 75.0554 794.589 74.7399 794.357C74.4243 794.125 74.0348 794.009 73.5711 794.009C73.0882 794.009 72.6857 794.131 72.3637 794.376C72.045 794.621 71.8051 794.949 71.6441 795.361C71.4864 795.773 71.4075 796.231 71.4075 796.733C71.4075 797.248 71.488 797.704 71.649 798.1C71.8132 798.493 72.0547 798.802 72.3734 799.027C72.6954 799.249 73.0946 799.36 73.5711 799.36ZM81.9166 800.655C81.2469 800.655 80.6593 800.495 80.1538 800.176C79.6515 799.858 79.2587 799.412 78.9754 798.839C78.6953 798.266 78.5552 797.596 78.5552 796.83C78.5552 796.057 78.6953 795.382 78.9754 794.806C79.2587 794.23 79.6515 793.782 80.1538 793.463C80.6593 793.145 81.2469 792.985 81.9166 792.985C82.5863 792.985 83.1723 793.145 83.6745 793.463C84.18 793.782 84.5728 794.23 84.8529 794.806C85.1363 795.382 85.2779 796.057 85.2779 796.83C85.2779 797.596 85.1363 798.266 84.8529 798.839C84.5728 799.412 84.18 799.858 83.6745 800.176C83.1723 800.495 82.5863 800.655 81.9166 800.655ZM81.9166 799.631C82.4253 799.631 82.8439 799.5 83.1723 799.239C83.5007 798.979 83.7438 798.636 83.9015 798.211C84.0593 797.786 84.1382 797.325 84.1382 796.83C84.1382 796.334 84.0593 795.872 83.9015 795.443C83.7438 795.015 83.5007 794.669 83.1723 794.405C82.8439 794.141 82.4253 794.009 81.9166 794.009C81.4079 794.009 80.9893 794.141 80.6609 794.405C80.3325 794.669 80.0894 795.015 79.9316 795.443C79.7739 795.872 79.695 796.334 79.695 796.83C79.695 797.325 79.7739 797.786 79.9316 798.211C80.0894 798.636 80.3325 798.979 80.6609 799.239C80.9893 799.5 81.4079 799.631 81.9166 799.631ZM91.6928 797.467V793.082H92.8326V800.5H91.6928V799.244H91.6155C91.4417 799.621 91.1712 799.941 90.8042 800.205C90.4371 800.466 89.9735 800.597 89.4132 800.597C88.9496 800.597 88.5375 800.495 88.1769 800.292C87.8163 800.086 87.5329 799.777 87.3269 799.365C87.1208 798.95 87.0178 798.427 87.0178 797.795V793.082H88.1576V797.718C88.1576 798.259 88.3089 798.691 88.6115 799.012C88.9174 799.334 89.307 799.495 89.7803 799.495C90.0636 799.495 90.3518 799.423 90.6448 799.278C90.941 799.133 91.1889 798.911 91.3885 798.612C91.5914 798.312 91.6928 797.931 91.6928 797.467ZM98.1463 793.082V794.048H94.302V793.082H98.1463ZM95.4224 791.305H96.5622V798.375C96.5622 798.697 96.6089 798.938 96.7022 799.099C96.7988 799.257 96.9212 799.363 97.0693 799.418C97.2206 799.47 97.38 799.495 97.5474 799.495C97.673 799.495 97.776 799.489 97.8565 799.476C97.937 799.46 98.0014 799.447 98.0497 799.437L98.2815 800.461C98.2042 800.49 98.0964 800.519 97.9579 800.548C97.8195 800.58 97.644 800.597 97.4315 800.597C97.1095 800.597 96.794 800.527 96.4849 800.389C96.179 800.25 95.9247 800.04 95.7218 799.756C95.5222 799.473 95.4224 799.116 95.4224 798.684V791.305Z" fill="#4B5563"/>
</g>
<path d="M24 46C24 34.9543 32.9543 26 44 26C55.0457 26 64 34.9543 64 46C64 57.0457 55.0457 66 44 66C32.9543 66 24 57.0457 24 46Z" fill="#DBEAFE"/>
<path d="M49.8332 53.5V51.8333C49.8332 50.9493 49.482 50.1014 48.8569 49.4763C48.2317 48.8512 47.3839 48.5 46.4998 48.5H41.4998C40.6158 48.5 39.7679 48.8512 39.1428 49.4763C38.5177 50.1014 38.1665 50.9493 38.1665 51.8333V53.5" stroke="#3B82F6" stroke-width="2" stroke-linecap="round" stroke-linejoin="round"/>
<path d="M43.9998 45.1667C45.8408 45.1667 47.3332 43.6743 47.3332 41.8333C47.3332 39.9924 45.8408 38.5 43.9998 38.5C42.1589 38.5 40.6665 39.9924 40.6665 41.8333C40.6665 43.6743 42.1589 45.1667 43.9998 45.1667Z" stroke="#3B82F6" stroke-width="2" stroke-linecap="round" stroke-linejoin="round"/>
<path d="M76.9756 40.5V30.6091H83.4085V32.1111H78.7673V34.7963H83.0753V36.2983H78.7673V38.998H83.4472V40.5H76.9756ZM86.5888 33.0818L88.0859 35.8202L89.6072 33.0818H91.457L89.2209 36.7909L91.4956 40.5H89.6555L88.0859 37.8293L86.5308 40.5H84.6763L86.9365 36.7909L84.7342 33.0818H86.5888ZM94.9173 40.6497C94.4473 40.6497 94.0239 40.566 93.6472 40.3986C93.2737 40.2279 92.9775 39.9768 92.7585 39.6452C92.5428 39.3135 92.4349 38.9046 92.4349 38.4185C92.4349 37.9999 92.5122 37.6538 92.6668 37.3801C92.8213 37.1064 93.0322 36.8875 93.2994 36.7233C93.5667 36.5591 93.8677 36.4351 94.2026 36.3514C94.5406 36.2645 94.89 36.2017 95.2506 36.1631C95.6852 36.118 96.0378 36.0777 96.3082 36.0423C96.5787 36.0037 96.7751 35.9457 96.8974 35.8685C97.023 35.788 97.0858 35.664 97.0858 35.4966V35.4676C97.0858 35.1038 96.9779 34.8221 96.7622 34.6224C96.5465 34.4228 96.2358 34.323 95.8301 34.323C95.4019 34.323 95.0622 34.4164 94.8111 34.6031C94.5632 34.7899 94.3957 35.0104 94.3088 35.2648L92.6764 35.033C92.8052 34.5822 93.0177 34.2055 93.3139 33.9028C93.6101 33.597 93.9723 33.3684 94.4006 33.217C94.8288 33.0625 95.3021 32.9852 95.8205 32.9852C96.1778 32.9852 96.5336 33.0271 96.8878 33.1108C97.242 33.1945 97.5655 33.333 97.8585 33.5261C98.1515 33.7161 98.3866 33.9753 98.5636 34.3037C98.7439 34.6321 98.8341 35.0426 98.8341 35.5352V40.5H97.1534V39.481H97.0955C96.9892 39.687 96.8395 39.8802 96.6463 40.0605C96.4563 40.2376 96.2165 40.3809 95.9267 40.4903C95.6402 40.5966 95.3037 40.6497 94.9173 40.6497ZM95.3713 39.3651C95.7223 39.3651 96.0265 39.2958 96.2841 39.1574C96.5417 39.0157 96.7397 38.829 96.8781 38.5972C97.0198 38.3653 97.0906 38.1126 97.0906 37.8389V36.9648C97.0359 37.0098 96.9425 37.0517 96.8105 37.0903C96.6817 37.129 96.5368 37.1628 96.3759 37.1918C96.2149 37.2207 96.0555 37.2465 95.8977 37.269C95.74 37.2916 95.6031 37.3109 95.4872 37.327C95.2264 37.3624 94.993 37.4204 94.7869 37.5009C94.5809 37.5813 94.4183 37.694 94.2991 37.8389C94.18 37.9806 94.1205 38.1641 94.1205 38.3895C94.1205 38.7115 94.238 38.9545 94.473 39.1187C94.7081 39.283 95.0075 39.3651 95.3713 39.3651ZM100.592 40.5V33.0818H102.263V34.3423H102.35C102.505 33.9173 102.761 33.5857 103.118 33.3474C103.475 33.106 103.902 32.9852 104.398 32.9852C104.9 32.9852 105.323 33.1076 105.668 33.3523C106.016 33.5937 106.26 33.9238 106.402 34.3423H106.479C106.643 33.9302 106.92 33.6018 107.31 33.3571C107.703 33.1092 108.168 32.9852 108.706 32.9852C109.388 32.9852 109.945 33.2009 110.377 33.6324C110.808 34.0638 111.024 34.6933 111.024 35.5207V40.5H109.271V35.7912C109.271 35.3308 109.148 34.9943 108.904 34.7818C108.659 34.5661 108.36 34.4582 108.005 34.4582C107.584 34.4582 107.254 34.5902 107.015 34.8543C106.78 35.1151 106.663 35.4547 106.663 35.8733V40.5H104.948V35.7187C104.948 35.3356 104.832 35.0297 104.601 34.8011C104.372 34.5725 104.073 34.4582 103.702 34.4582C103.451 34.4582 103.223 34.5226 103.016 34.6514C102.81 34.777 102.646 34.9557 102.524 35.1875C102.402 35.4161 102.34 35.6833 102.34 35.9892V40.5H100.592ZM112.798 43.2818V33.0818H114.517V34.3085H114.618C114.708 34.1282 114.836 33.9366 115 33.7338C115.164 33.5277 115.386 33.3523 115.666 33.2074C115.946 33.0593 116.304 32.9852 116.738 32.9852C117.312 32.9852 117.828 33.1317 118.289 33.4247C118.752 33.7145 119.119 34.1443 119.39 34.7142C119.664 35.2809 119.8 35.9763 119.8 36.8006C119.8 37.6152 119.667 38.3074 119.4 38.8773C119.132 39.4472 118.768 39.8818 118.308 40.1812C117.848 40.4807 117.326 40.6304 116.743 40.6304C116.318 40.6304 115.966 40.5596 115.686 40.4179C115.405 40.2762 115.18 40.1056 115.009 39.906C114.842 39.7031 114.712 39.5116 114.618 39.3312H114.546V43.2818H112.798ZM114.512 36.7909C114.512 37.2706 114.58 37.6908 114.715 38.0514C114.853 38.412 115.051 38.6937 115.309 38.8966C115.57 39.0962 115.885 39.196 116.255 39.196C116.642 39.196 116.965 39.093 117.226 38.8869C117.487 38.6777 117.683 38.3927 117.815 38.0321C117.951 37.6683 118.018 37.2545 118.018 36.7909C118.018 36.3305 117.952 35.9216 117.82 35.5642C117.688 35.2068 117.492 34.9267 117.231 34.7239C116.97 34.521 116.645 34.4196 116.255 34.4196C115.882 34.4196 115.565 34.5178 115.304 34.7142C115.043 34.9106 114.845 35.1859 114.71 35.5401C114.578 35.8942 114.512 36.3112 114.512 36.7909ZM123.046 30.6091V40.5H121.298V30.6091H123.046ZM128.128 40.6449C127.384 40.6449 126.742 40.4903 126.201 40.1812C125.663 39.8689 125.249 39.4278 124.96 38.858C124.67 38.2848 124.525 37.6103 124.525 36.8344C124.525 36.0713 124.67 35.4016 124.96 34.8253C125.253 34.2457 125.661 33.795 126.186 33.473C126.711 33.1478 127.328 32.9852 128.036 32.9852C128.493 32.9852 128.925 33.0593 129.33 33.2074C129.739 33.3523 130.1 33.5777 130.412 33.8835C130.728 34.1894 130.976 34.579 131.156 35.0523C131.336 35.5223 131.426 36.0826 131.426 36.733V37.269H125.346V36.0906H129.75C129.747 35.7558 129.675 35.458 129.533 35.1972C129.391 34.9331 129.193 34.7255 128.939 34.5741C128.688 34.4228 128.395 34.3472 128.06 34.3472C127.703 34.3472 127.389 34.4341 127.118 34.608C126.848 34.7786 126.637 35.004 126.486 35.2841C126.338 35.561 126.262 35.8652 126.259 36.1969V37.2256C126.259 37.657 126.338 38.0273 126.495 38.3364C126.653 38.6422 126.874 38.8773 127.157 39.0415C127.44 39.2025 127.772 39.283 128.152 39.283C128.406 39.283 128.636 39.2475 128.842 39.1767C129.049 39.1027 129.227 38.9948 129.379 38.8531C129.53 38.7115 129.644 38.536 129.721 38.3267L131.354 38.5102C131.251 38.9417 131.054 39.3184 130.765 39.6403C130.478 39.9591 130.111 40.207 129.663 40.3841C129.216 40.558 128.704 40.6449 128.128 40.6449Z" fill="black"/>
<path d="M79.6342 62.6352C79.0088 62.6352 78.4693 62.4972 78.0157 62.2211C77.565 61.9422 77.217 61.5534 76.9719 61.0548C76.7297 60.5533 76.6085 59.9701 76.6085 59.3053C76.6085 58.6404 76.7297 58.0544 76.9719 57.5473C77.217 57.0374 77.5579 56.6402 77.9946 56.3556C78.4341 56.0683 78.9468 55.9246 79.5328 55.9246C79.8709 55.9246 80.2047 55.9809 80.5343 56.0936C80.864 56.2063 81.164 56.3894 81.4344 56.643C81.7049 56.8937 81.9204 57.2261 82.081 57.6403C82.2416 58.0544 82.3219 58.5643 82.3219 59.17V59.5926H77.3185V58.7305H81.3077C81.3077 58.3643 81.2344 58.0375 81.0879 57.7501C80.9442 57.4628 80.7386 57.236 80.471 57.0698C80.2061 56.9036 79.8934 56.8205 79.5328 56.8205C79.1356 56.8205 78.7919 56.9191 78.5017 57.1163C78.2143 57.3107 77.9932 57.5642 77.8382 57.8769C77.6833 58.1896 77.6058 58.5249 77.6058 58.8827V59.4574C77.6058 59.9476 77.6903 60.3631 77.8594 60.704C78.0312 61.0421 78.2693 61.2999 78.5735 61.4773C78.8778 61.652 79.2314 61.7393 79.6342 61.7393C79.8962 61.7393 80.1329 61.7027 80.3442 61.6295C80.5583 61.5534 80.7428 61.4407 80.8978 61.2914C81.0527 61.1393 81.1724 60.9505 81.257 60.7251L82.2205 60.9956C82.119 61.3224 81.9486 61.6098 81.7091 61.8577C81.4697 62.1028 81.1739 62.2943 80.8217 62.4324C80.4695 62.5676 80.0737 62.6352 79.6342 62.6352ZM84.4084 56.0091L85.9635 58.6629L87.5186 56.0091H88.668L86.572 59.2545L88.668 62.5H87.5186L85.9635 59.9814L84.4084 62.5H83.259L85.3212 59.2545L83.259 56.0091H84.4084ZM92.0012 62.6521C91.5899 62.6521 91.2166 62.5747 90.8813 62.4197C90.5461 62.2619 90.2799 62.0352 90.0827 61.7393C89.8854 61.4407 89.7868 61.0801 89.7868 60.6575C89.7868 60.2857 89.8601 59.9842 90.0066 59.7532C90.1531 59.5194 90.3489 59.3362 90.594 59.2038C90.8391 59.0714 91.1095 58.9728 91.4053 58.908C91.704 58.8404 92.004 58.7869 92.3055 58.7474C92.6999 58.6967 93.0196 58.6587 93.2647 58.6333C93.5126 58.6052 93.6929 58.5587 93.8056 58.4939C93.9211 58.4291 93.9789 58.3164 93.9789 58.1558V58.122C93.9789 57.7051 93.8648 57.3811 93.6366 57.1501C93.4112 56.9191 93.0689 56.8036 92.6097 56.8036C92.1336 56.8036 91.7603 56.9078 91.4899 57.1163C91.2194 57.3247 91.0292 57.5473 90.9194 57.7839L89.9728 57.4459C90.1418 57.0515 90.3672 56.7444 90.6489 56.5246C90.9335 56.3021 91.2434 56.1471 91.5786 56.0598C91.9167 55.9696 92.2491 55.9246 92.5759 55.9246C92.7844 55.9246 93.0238 55.9499 93.2943 56.0006C93.5676 56.0485 93.831 56.1485 94.0845 56.3007C94.3409 56.4528 94.5536 56.6824 94.7226 56.9895C94.8917 57.2966 94.9762 57.7079 94.9762 58.2234V62.5H93.9789V61.621H93.9282C93.8606 61.7619 93.7479 61.9126 93.5901 62.0732C93.4323 62.2338 93.2225 62.3704 92.9605 62.4831C92.6985 62.5958 92.3787 62.6521 92.0012 62.6521ZM92.1533 61.7563C92.5477 61.7563 92.8802 61.6788 93.1506 61.5238C93.4239 61.3689 93.6296 61.1689 93.7676 60.9238C93.9085 60.6787 93.9789 60.4209 93.9789 60.1504V59.2376C93.9366 59.2884 93.8437 59.3348 93.7 59.3771C93.5591 59.4165 93.3957 59.4518 93.2098 59.4827C93.0267 59.5109 92.8478 59.5363 92.6731 59.5588C92.5012 59.5785 92.3618 59.5954 92.2547 59.6095C91.9956 59.6433 91.7533 59.6983 91.5279 59.7743C91.3053 59.8476 91.125 59.9589 90.987 60.1082C90.8518 60.2547 90.7841 60.4547 90.7841 60.7082C90.7841 61.0548 90.9123 61.3168 91.1687 61.4942C91.4279 61.6689 91.7561 61.7563 92.1533 61.7563ZM96.7965 62.5V56.0091H97.76V57.0233H97.8445C97.9797 56.6768 98.198 56.4077 98.4995 56.2162C98.8009 56.0218 99.163 55.9246 99.5855 55.9246C100.014 55.9246 100.37 56.0218 100.655 56.2162C100.942 56.4077 101.166 56.6768 101.327 57.0233H101.394C101.56 56.688 101.81 56.4218 102.142 56.2246C102.475 56.0246 102.873 55.9246 103.338 55.9246C103.918 55.9246 104.393 56.1063 104.762 56.4697C105.131 56.8303 105.316 57.3924 105.316 58.1558V62.5H104.318V58.1558C104.318 57.6769 104.187 57.3346 103.925 57.1289C103.663 56.9233 103.355 56.8205 103 56.8205C102.544 56.8205 102.19 56.9585 101.939 57.2346C101.689 57.5079 101.563 57.8544 101.563 58.2741V62.5H100.549V58.0544C100.549 57.6853 100.429 57.3881 100.19 57.1627C99.9504 56.9346 99.6419 56.8205 99.2644 56.8205C99.0052 56.8205 98.7629 56.8895 98.5375 57.0275C98.315 57.1656 98.1347 57.3571 97.9966 57.6022C97.8614 57.8445 97.7938 58.1248 97.7938 58.4432V62.5H96.7965ZM107.139 64.9341V56.0091H108.103V57.0402H108.221C108.294 56.9275 108.396 56.7838 108.525 56.6092C108.658 56.4317 108.846 56.2739 109.092 56.1359C109.34 55.995 109.675 55.9246 110.097 55.9246C110.644 55.9246 111.126 56.0612 111.543 56.3345C111.96 56.6078 112.285 56.9951 112.519 57.4966C112.753 57.9981 112.87 58.5897 112.87 59.2714C112.87 59.9589 112.753 60.5547 112.519 61.059C112.285 61.5605 111.961 61.9492 111.547 62.2253C111.133 62.4986 110.655 62.6352 110.114 62.6352C109.697 62.6352 109.363 62.5662 109.113 62.4282C108.862 62.2873 108.669 62.1281 108.534 61.9506C108.399 61.7703 108.294 61.621 108.221 61.5027H108.137V64.9341H107.139ZM108.12 59.2545C108.12 59.7447 108.191 60.1772 108.335 60.5519C108.479 60.9238 108.689 61.2153 108.965 61.4266C109.241 61.6351 109.579 61.7393 109.979 61.7393C110.396 61.7393 110.744 61.6295 111.023 61.4097C111.305 61.1872 111.516 60.8885 111.657 60.5138C111.8 60.1363 111.872 59.7166 111.872 59.2545C111.872 58.7982 111.802 58.3868 111.661 58.0206C111.523 57.6515 111.313 57.36 111.031 57.1458C110.752 56.9289 110.402 56.8205 109.979 56.8205C109.573 56.8205 109.232 56.9233 108.956 57.1289C108.68 57.3318 108.472 57.6163 108.331 57.9826C108.19 58.346 108.12 58.77 108.12 59.2545ZM115.388 53.8455V62.5H114.391V53.8455H115.388ZM119.936 62.6352C119.311 62.6352 118.771 62.4972 118.318 62.2211C117.867 61.9422 117.519 61.5534 117.274 61.0548C117.032 60.5533 116.91 59.9701 116.91 59.3053C116.91 58.6404 117.032 58.0544 117.274 57.5473C117.519 57.0374 117.86 56.6402 118.297 56.3556C118.736 56.0683 119.249 55.9246 119.835 55.9246C120.173 55.9246 120.507 55.9809 120.836 56.0936C121.166 56.2063 121.466 56.3894 121.736 56.643C122.007 56.8937 122.222 57.2261 122.383 57.6403C122.544 58.0544 122.624 58.5643 122.624 59.17V59.5926H117.62V58.7305H121.61C121.61 58.3643 121.536 58.0375 121.39 57.7501C121.246 57.4628 121.041 57.236 120.773 57.0698C120.508 56.9036 120.195 56.8205 119.835 56.8205C119.438 56.8205 119.094 56.9191 118.804 57.1163C118.516 57.3107 118.295 57.5642 118.14 57.8769C117.985 58.1896 117.908 58.5249 117.908 58.8827V59.4574C117.908 59.9476 117.992 60.3631 118.161 60.704C118.333 61.0421 118.571 61.2999 118.875 61.4773C119.18 61.652 119.533 61.7393 119.936 61.7393C120.198 61.7393 120.435 61.7027 120.646 61.6295C120.86 61.5534 121.045 61.4407 121.2 61.2914C121.355 61.1393 121.474 60.9505 121.559 60.7251L122.522 60.9956C122.421 61.3224 122.251 61.6098 122.011 61.8577C121.772 62.1028 121.476 62.2943 121.124 62.4324C120.771 62.5676 120.376 62.6352 119.936 62.6352ZM129.127 64.782C128.265 64.782 127.503 64.6636 126.841 64.427C126.179 64.1932 125.623 63.848 125.172 63.3917C124.721 62.9353 124.38 62.376 124.149 61.714C123.918 61.0519 123.803 60.2941 123.803 59.4405C123.803 58.615 123.92 57.8769 124.154 57.2261C124.39 56.5754 124.733 56.0232 125.18 55.5696C125.631 55.1132 126.178 54.7653 126.82 54.5258C127.465 54.2864 128.195 54.1666 129.009 54.1666C129.801 54.1666 130.494 54.2962 131.088 54.5554C131.685 54.8118 132.184 55.1597 132.584 55.5992C132.987 56.0359 133.288 56.5275 133.488 57.074C133.691 57.6205 133.793 58.184 133.793 58.7643C133.793 59.1728 133.773 59.587 133.734 60.0067C133.694 60.4265 133.611 60.8125 133.484 61.1646C133.357 61.514 133.162 61.7957 132.897 62.0098C132.635 62.2239 132.28 62.331 131.832 62.331C131.635 62.331 131.418 62.3 131.181 62.238C130.945 62.176 130.735 62.0732 130.552 61.9295C130.368 61.7858 130.26 61.5929 130.226 61.3506H130.175C130.108 61.514 130.004 61.6689 129.863 61.8154C129.725 61.9619 129.543 62.0788 129.318 62.1662C129.095 62.2535 128.823 62.2915 128.502 62.2803C128.136 62.2662 127.813 62.1845 127.534 62.0352C127.255 61.883 127.022 61.6774 126.833 61.4182C126.647 61.1562 126.506 60.8533 126.41 60.5096C126.317 60.1631 126.271 59.7898 126.271 59.3898C126.271 59.0094 126.327 58.6615 126.44 58.346C126.552 58.0305 126.709 57.7544 126.909 57.5177C127.112 57.2811 127.348 57.0923 127.619 56.9515C127.892 56.8078 128.186 56.719 128.502 56.6852C128.784 56.6571 129.04 56.6697 129.271 56.7233C129.502 56.774 129.692 56.8514 129.842 56.9557C129.991 57.0571 130.085 57.1698 130.125 57.2938H130.175V56.8205H131.071V60.6406C131.071 60.8773 131.138 61.0857 131.27 61.2661C131.402 61.4464 131.595 61.5365 131.849 61.5365C132.136 61.5365 132.356 61.4379 132.508 61.2407C132.663 61.0435 132.769 60.7392 132.825 60.3279C132.884 59.9166 132.914 59.3898 132.914 58.7474C132.914 58.3699 132.862 57.9981 132.757 57.6318C132.656 57.2628 132.501 56.9176 132.293 56.5965C132.087 56.2753 131.826 55.9922 131.511 55.7471C131.195 55.502 130.825 55.3104 130.399 55.1724C129.977 55.0315 129.496 54.9611 128.958 54.9611C128.296 54.9611 127.703 55.0639 127.179 55.2696C126.658 55.4724 126.214 55.7696 125.848 56.1612C125.485 56.55 125.207 57.0233 125.016 57.5811C124.827 58.1361 124.733 58.7672 124.733 59.4743C124.733 60.1927 124.827 60.8308 125.016 61.3886C125.207 61.9464 125.489 62.4169 125.861 62.8C126.236 63.1832 126.699 63.4734 127.251 63.6706C127.803 63.8706 128.44 63.9706 129.161 63.9706C129.471 63.9706 129.777 63.941 130.078 63.8819C130.38 63.8227 130.646 63.7579 130.877 63.6875C131.108 63.617 131.274 63.5649 131.376 63.5311L131.612 64.3087C131.438 64.3819 131.209 64.4552 130.928 64.5284C130.649 64.6017 130.35 64.6622 130.032 64.7101C129.716 64.758 129.415 64.782 129.127 64.782ZM128.637 61.4182C129.015 61.4182 129.32 61.3421 129.554 61.19C129.788 61.0379 129.958 60.8083 130.066 60.5012C130.173 60.1941 130.226 59.8067 130.226 59.3391C130.226 58.8658 130.167 58.4967 130.049 58.2319C129.93 57.9671 129.756 57.7811 129.525 57.6741C129.294 57.567 129.009 57.5135 128.671 57.5135C128.35 57.5135 128.075 57.598 127.847 57.767C127.622 57.9333 127.448 58.1558 127.327 58.4347C127.209 58.7108 127.15 59.0123 127.15 59.3391C127.15 59.6997 127.198 60.0391 127.293 60.3575C127.389 60.673 127.546 60.9294 127.762 61.1266C127.979 61.321 128.271 61.4182 128.637 61.4182ZM137.906 65.0693C137.424 65.0693 137.01 65.0073 136.663 64.8834C136.317 64.7622 136.028 64.6017 135.797 64.4016C135.569 64.2044 135.387 63.9931 135.252 63.7678L136.046 63.2099C136.136 63.3283 136.25 63.4635 136.388 63.6156C136.527 63.7706 136.715 63.9044 136.955 64.0171C137.197 64.1326 137.514 64.1903 137.906 64.1903C138.43 64.1903 138.862 64.0636 139.203 63.81C139.544 63.5565 139.714 63.1592 139.714 62.6183V61.2999H139.63C139.556 61.4182 139.452 61.5647 139.317 61.7393C139.185 61.9112 138.993 62.0647 138.742 62.2C138.494 62.3324 138.159 62.3986 137.737 62.3986C137.213 62.3986 136.742 62.2746 136.325 62.0267C135.911 61.7788 135.583 61.4182 135.34 60.9449C135.101 60.4716 134.981 59.8969 134.981 59.2207C134.981 58.5559 135.098 57.9769 135.332 57.4839C135.566 56.9881 135.891 56.6049 136.308 56.3345C136.725 56.0612 137.207 55.9246 137.753 55.9246C138.176 55.9246 138.511 55.995 138.759 56.1359C139.01 56.2739 139.201 56.4317 139.334 56.6092C139.469 56.7838 139.573 56.9275 139.647 57.0402H139.748V56.0091H140.712V62.6859C140.712 63.2437 140.585 63.6973 140.331 64.0467C140.08 64.3988 139.742 64.6566 139.317 64.82C138.894 64.9862 138.424 65.0693 137.906 65.0693ZM137.872 61.5027C138.272 61.5027 138.61 61.4111 138.886 61.228C139.162 61.0449 139.372 60.7815 139.516 60.4378C139.659 60.0941 139.731 59.6828 139.731 59.2038C139.731 58.7362 139.661 58.3234 139.52 57.9657C139.379 57.6079 139.171 57.3276 138.894 57.1247C138.618 56.9219 138.277 56.8205 137.872 56.8205C137.449 56.8205 137.097 56.9275 136.815 57.1416C136.536 57.3557 136.327 57.6431 136.186 58.0037C136.048 58.3643 135.979 58.7643 135.979 59.2038C135.979 59.6546 136.049 60.0532 136.19 60.3998C136.334 60.7435 136.545 61.0139 136.824 61.2111C137.105 61.4055 137.455 61.5027 137.872 61.5027ZM142.537 62.5V56.0091H143.501V57.0233H143.585C143.72 56.6768 143.939 56.4077 144.24 56.2162C144.542 56.0218 144.904 55.9246 145.326 55.9246C145.754 55.9246 146.111 56.0218 146.395 56.2162C146.683 56.4077 146.907 56.6768 147.067 57.0233H147.135C147.301 56.688 147.55 56.4218 147.883 56.2246C148.215 56.0246 148.614 55.9246 149.079 55.9246C149.659 55.9246 150.134 56.1063 150.503 56.4697C150.872 56.8303 151.056 57.3924 151.056 58.1558V62.5H150.059V58.1558C150.059 57.6769 149.928 57.3346 149.666 57.1289C149.404 56.9233 149.096 56.8205 148.741 56.8205C148.284 56.8205 147.931 56.9585 147.68 57.2346C147.429 57.5079 147.304 57.8544 147.304 58.2741V62.5H146.29V58.0544C146.29 57.6853 146.17 57.3881 145.93 57.1627C145.691 56.9346 145.383 56.8205 145.005 56.8205C144.746 56.8205 144.504 56.8895 144.278 57.0275C144.056 57.1656 143.875 57.3571 143.737 57.6022C143.602 57.8445 143.534 58.1248 143.534 58.4432V62.5H142.537ZM154.79 62.6521C154.379 62.6521 154.005 62.5747 153.67 62.4197C153.335 62.2619 153.069 62.0352 152.871 61.7393C152.674 61.4407 152.576 61.0801 152.576 60.6575C152.576 60.2857 152.649 59.9842 152.795 59.7532C152.942 59.5194 153.138 59.3362 153.383 59.2038C153.628 59.0714 153.898 58.9728 154.194 58.908C154.493 58.8404 154.793 58.7869 155.094 58.7474C155.489 58.6967 155.808 58.6587 156.053 58.6333C156.301 58.6052 156.482 58.5587 156.594 58.4939C156.71 58.4291 156.768 58.3164 156.768 58.1558V58.122C156.768 57.7051 156.654 57.3811 156.425 57.1501C156.2 56.9191 155.858 56.8036 155.398 56.8036C154.922 56.8036 154.549 56.9078 154.279 57.1163C154.008 57.3247 153.818 57.5473 153.708 57.7839L152.762 57.4459C152.931 57.0515 153.156 56.7444 153.438 56.5246C153.722 56.3021 154.032 56.1471 154.367 56.0598C154.705 55.9696 155.038 55.9246 155.365 55.9246C155.573 55.9246 155.813 55.9499 156.083 56.0006C156.356 56.0485 156.62 56.1485 156.873 56.3007C157.13 56.4528 157.342 56.6824 157.511 56.9895C157.68 57.2966 157.765 57.7079 157.765 58.2234V62.5H156.768V61.621H156.717C156.649 61.7619 156.537 61.9126 156.379 62.0732C156.221 62.2338 156.011 62.3704 155.749 62.4831C155.487 62.5958 155.167 62.6521 154.79 62.6521ZM154.942 61.7563C155.336 61.7563 155.669 61.6788 155.939 61.5238C156.213 61.3689 156.418 61.1689 156.556 60.9238C156.697 60.6787 156.768 60.4209 156.768 60.1504V59.2376C156.725 59.2884 156.632 59.3348 156.489 59.3771C156.348 59.4165 156.184 59.4518 155.999 59.4827C155.815 59.5109 155.637 59.5363 155.462 59.5588C155.29 59.5785 155.151 59.5954 155.044 59.6095C154.784 59.6433 154.542 59.6983 154.317 59.7743C154.094 59.8476 153.914 59.9589 153.776 60.1082C153.641 60.2547 153.573 60.4547 153.573 60.7082C153.573 61.0548 153.701 61.3168 153.957 61.4942C154.217 61.6689 154.545 61.7563 154.942 61.7563ZM159.585 62.5V56.0091H160.583V62.5H159.585ZM160.092 54.9273C159.898 54.9273 159.73 54.8611 159.589 54.7287C159.451 54.5962 159.382 54.4371 159.382 54.2511C159.382 54.0652 159.451 53.906 159.589 53.7736C159.73 53.6412 159.898 53.575 160.092 53.575C160.287 53.575 160.453 53.6412 160.591 53.7736C160.732 53.906 160.802 54.0652 160.802 54.2511C160.802 54.4371 160.732 54.5962 160.591 54.7287C160.453 54.8611 160.287 54.9273 160.092 54.9273ZM163.406 53.8455V62.5H162.409V53.8455H163.406ZM165.96 62.5676C165.751 62.5676 165.573 62.493 165.423 62.3436C165.274 62.1943 165.199 62.0154 165.199 61.807C165.199 61.5985 165.274 61.4196 165.423 61.2703C165.573 61.121 165.751 61.0463 165.96 61.0463C166.168 61.0463 166.347 61.121 166.497 61.2703C166.646 61.4196 166.721 61.5985 166.721 61.807C166.721 61.945 166.685 62.0718 166.615 62.1873C166.547 62.3028 166.456 62.3958 166.34 62.4662C166.228 62.5338 166.101 62.5676 165.96 62.5676ZM171.147 62.6352C170.539 62.6352 170.015 62.4915 169.575 62.2042C169.136 61.9168 168.798 61.521 168.561 61.0167C168.324 60.5124 168.206 59.9363 168.206 59.2884C168.206 58.6291 168.327 58.0474 168.569 57.5431C168.815 57.036 169.155 56.6402 169.592 56.3556C170.032 56.0683 170.544 55.9246 171.13 55.9246C171.587 55.9246 171.998 56.0091 172.364 56.1781C172.73 56.3472 173.03 56.5838 173.264 56.8881C173.498 57.1923 173.643 57.5473 173.7 57.953H172.702C172.626 57.6572 172.457 57.3952 172.195 57.167C171.936 56.936 171.587 56.8205 171.147 56.8205C170.758 56.8205 170.418 56.9219 170.125 57.1247C169.834 57.3247 169.608 57.6079 169.444 57.9741C169.284 58.3375 169.203 58.7643 169.203 59.2545C169.203 59.756 169.282 60.1927 169.44 60.5646C169.601 60.9364 169.826 61.2252 170.116 61.4309C170.409 61.6365 170.753 61.7393 171.147 61.7393C171.406 61.7393 171.642 61.6943 171.853 61.6041C172.064 61.514 172.243 61.3844 172.39 61.2153C172.536 61.0463 172.64 60.8435 172.702 60.6068H173.7C173.643 60.99 173.504 61.3351 173.281 61.6422C173.061 61.9464 172.77 62.1887 172.406 62.369C172.046 62.5465 171.626 62.6352 171.147 62.6352ZM177.794 62.6352C177.208 62.6352 176.694 62.4958 176.252 62.2169C175.813 61.938 175.469 61.5478 175.221 61.0463C174.976 60.5448 174.853 59.9589 174.853 59.2884C174.853 58.6122 174.976 58.022 175.221 57.5177C175.469 57.0134 175.813 56.6218 176.252 56.3429C176.694 56.064 177.208 55.9246 177.794 55.9246C178.38 55.9246 178.893 56.064 179.333 56.3429C179.775 56.6218 180.119 57.0134 180.364 57.5177C180.612 58.022 180.736 58.6122 180.736 59.2884C180.736 59.9589 180.612 60.5448 180.364 61.0463C180.119 61.5478 179.775 61.938 179.333 62.2169C178.893 62.4958 178.38 62.6352 177.794 62.6352ZM177.794 61.7393C178.24 61.7393 178.606 61.6252 178.893 61.3971C179.181 61.1689 179.393 60.8688 179.531 60.4969C179.669 60.1251 179.738 59.7222 179.738 59.2884C179.738 58.8545 179.669 58.4502 179.531 58.0755C179.393 57.7008 179.181 57.398 178.893 57.167C178.606 56.936 178.24 56.8205 177.794 56.8205C177.349 56.8205 176.983 56.936 176.696 57.167C176.408 57.398 176.196 57.7008 176.058 58.0755C175.92 58.4502 175.851 58.8545 175.851 59.2884C175.851 59.7222 175.92 60.1251 176.058 60.4969C176.196 60.8688 176.408 61.1689 176.696 61.3971C176.983 61.6252 177.349 61.7393 177.794 61.7393ZM182.258 62.5V56.0091H183.221V57.0233H183.306C183.441 56.6768 183.66 56.4077 183.961 56.2162C184.262 56.0218 184.624 55.9246 185.047 55.9246C185.475 55.9246 185.832 56.0218 186.116 56.2162C186.404 56.4077 186.628 56.6768 186.788 57.0233H186.856C187.022 56.688 187.271 56.4218 187.604 56.2246C187.936 56.0246 188.335 55.9246 188.8 55.9246C189.38 55.9246 189.855 56.1063 190.224 56.4697C190.593 56.8303 190.777 57.3924 190.777 58.1558V62.5H189.78V58.1558C189.78 57.6769 189.649 57.3346 189.387 57.1289C189.125 56.9233 188.817 56.8205 188.462 56.8205C188.005 56.8205 187.652 56.9585 187.401 57.2346C187.15 57.5079 187.025 57.8544 187.025 58.2741V62.5H186.011V58.0544C186.011 57.6853 185.891 57.3881 185.651 57.1627C185.412 56.9346 185.103 56.8205 184.726 56.8205C184.467 56.8205 184.224 56.8895 183.999 57.0275C183.776 57.1656 183.596 57.3571 183.458 57.6022C183.323 57.8445 183.255 58.1248 183.255 58.4432V62.5H182.258Z" fill="#6B7280"/>
<rect width="994" height="832" transform="translate(286)" fill="#F9FAFB"/>
<path d="M459.289 101V86.1636H465.143C466.263 86.1636 467.22 86.3641 468.012 86.7649C468.809 87.1609 469.415 87.7236 469.83 88.4528C470.25 89.1773 470.46 90.0297 470.46 91.0101C470.46 91.9953 470.248 92.8429 469.823 93.5528C469.398 94.258 468.782 94.7989 467.975 95.1756C467.174 95.5523 466.203 95.7406 465.063 95.7406H461.144V93.2196H464.556C465.155 93.2196 465.652 93.1375 466.048 92.9733C466.444 92.8091 466.739 92.5628 466.932 92.2344C467.13 91.906 467.229 91.4979 467.229 91.0101C467.229 90.5175 467.13 90.1021 466.932 89.7641C466.739 89.426 466.442 89.17 466.041 88.9962C465.645 88.8175 465.145 88.7281 464.542 88.7281H462.426V101H459.289ZM467.302 94.2483L470.989 101H467.526L463.919 94.2483H467.302ZM477.511 101.217C476.366 101.217 475.381 100.986 474.555 100.522C473.734 100.053 473.101 99.3918 472.657 98.5369C472.213 97.6773 471.991 96.6607 471.991 95.4871C471.991 94.3425 472.213 93.3379 472.657 92.4734C473.101 91.6089 473.727 90.9352 474.533 90.4523C475.345 89.9693 476.296 89.7278 477.388 89.7278C478.122 89.7278 478.805 89.8462 479.438 90.0828C480.075 90.3146 480.631 90.6648 481.104 91.1332C481.582 91.6017 481.954 92.1909 482.22 92.9009C482.485 93.606 482.618 94.4318 482.618 95.3784V96.226H473.222V94.3135H479.713C479.713 93.8692 479.616 93.4756 479.423 93.1327C479.23 92.7898 478.962 92.5217 478.619 92.3286C478.281 92.1305 477.887 92.0315 477.438 92.0315C476.97 92.0315 476.555 92.1402 476.192 92.3575C475.835 92.57 475.555 92.8574 475.352 93.2196C475.149 93.577 475.045 93.9754 475.04 94.4149V96.2332C475.04 96.7838 475.142 97.2595 475.345 97.6604C475.552 98.0612 475.845 98.3703 476.221 98.5876C476.598 98.805 477.045 98.9136 477.561 98.9136C477.904 98.9136 478.218 98.8653 478.503 98.7688C478.788 98.6722 479.032 98.5273 479.235 98.3341C479.438 98.1409 479.592 97.9043 479.699 97.6241L482.553 97.8125C482.408 98.4983 482.111 99.0972 481.662 99.6091C481.217 100.116 480.643 100.512 479.938 100.797C479.237 101.077 478.428 101.217 477.511 101.217ZM489.645 105.405C488.645 105.405 487.788 105.267 487.073 104.992C486.363 104.721 485.798 104.352 485.378 103.883C484.958 103.415 484.685 102.888 484.559 102.304L487.414 101.92C487.501 102.142 487.638 102.35 487.827 102.543C488.015 102.736 488.264 102.891 488.573 103.007C488.887 103.127 489.268 103.188 489.717 103.188C490.389 103.188 490.942 103.024 491.376 102.695C491.816 102.372 492.036 101.828 492.036 101.065V99.0295H491.905C491.77 99.3386 491.567 99.6308 491.297 99.9061C491.026 100.181 490.679 100.406 490.254 100.58C489.829 100.754 489.321 100.841 488.732 100.841C487.897 100.841 487.136 100.647 486.45 100.261C485.769 99.8699 485.226 99.2734 484.82 98.4717C484.419 97.6652 484.219 96.6462 484.219 95.4146C484.219 94.1541 484.424 93.1013 484.835 92.2561C485.245 91.4109 485.791 90.7783 486.472 90.3581C487.158 89.9379 487.909 89.7278 488.725 89.7278C489.348 89.7278 489.87 89.8341 490.29 90.0466C490.71 90.2543 491.048 90.5151 491.304 90.829C491.565 91.1381 491.765 91.4423 491.905 91.7418H492.021V89.8727H495.085V101.109C495.085 102.055 494.854 102.847 494.39 103.485C493.926 104.122 493.284 104.6 492.463 104.919C491.647 105.243 490.707 105.405 489.645 105.405ZM489.71 98.5224C490.208 98.5224 490.628 98.3993 490.971 98.153C491.318 97.9018 491.584 97.5445 491.768 97.0808C491.956 96.6124 492.05 96.0521 492.05 95.4001C492.05 94.7482 491.958 94.1831 491.775 93.705C491.591 93.222 491.326 92.8477 490.978 92.5821C490.63 92.3165 490.208 92.1837 489.71 92.1837C489.203 92.1837 488.776 92.3213 488.428 92.5966C488.08 92.867 487.817 93.2437 487.638 93.7267C487.46 94.2097 487.37 94.7675 487.37 95.4001C487.37 96.0425 487.46 96.5979 487.638 97.0663C487.822 97.53 488.085 97.8898 488.428 98.1457C488.776 98.3969 489.203 98.5224 489.71 98.5224ZM497.541 101V89.8727H500.627V101H497.541ZM499.092 88.4384C498.633 88.4384 498.239 88.2862 497.911 87.982C497.587 87.6729 497.425 87.3034 497.425 86.8736C497.425 86.4486 497.587 86.0839 497.911 85.7797C498.239 85.4706 498.633 85.3161 499.092 85.3161C499.55 85.3161 499.942 85.4706 500.265 85.7797C500.594 86.0839 500.758 86.4486 500.758 86.8736C500.758 87.3034 500.594 87.6729 500.265 87.982C499.942 88.2862 499.55 88.4384 499.092 88.4384ZM512.358 93.0457L509.532 93.2196C509.484 92.9781 509.38 92.7608 509.221 92.5676C509.062 92.3696 508.851 92.2126 508.591 92.0967C508.335 91.976 508.028 91.9156 507.671 91.9156C507.193 91.9156 506.789 92.017 506.461 92.2199C506.132 92.4179 505.968 92.6835 505.968 93.0168C505.968 93.2824 506.075 93.507 506.287 93.6905C506.5 93.874 506.864 94.0213 507.381 94.1324L509.395 94.5381C510.477 94.7602 511.283 95.1176 511.814 95.6102C512.346 96.1028 512.611 96.75 512.611 97.5517C512.611 98.281 512.396 98.9209 511.967 99.4714C511.542 100.022 510.957 100.452 510.213 100.761C509.475 101.065 508.622 101.217 507.656 101.217C506.183 101.217 505.01 100.911 504.135 100.297C503.266 99.6791 502.757 98.8388 502.607 97.7763L505.642 97.6169C505.734 98.0661 505.956 98.4089 506.309 98.6456C506.661 98.8774 507.113 98.9933 507.663 98.9933C508.204 98.9933 508.639 98.8895 508.967 98.6818C509.301 98.4693 509.47 98.1964 509.475 97.8632C509.47 97.5831 509.351 97.3537 509.12 97.175C508.888 96.9915 508.53 96.8514 508.047 96.7548L506.12 96.3709C505.034 96.1536 504.225 95.7768 503.694 95.2408C503.167 94.7047 502.904 94.0213 502.904 93.1906C502.904 92.4759 503.097 91.8601 503.483 91.3433C503.875 90.8266 504.423 90.4281 505.128 90.148C505.838 89.8679 506.669 89.7278 507.62 89.7278C509.025 89.7278 510.131 90.0249 510.938 90.6189C511.749 91.2129 512.223 92.0219 512.358 93.0457ZM520.473 89.8727V92.1909H513.772V89.8727H520.473ZM515.294 87.2068H518.38V97.5807C518.38 97.8656 518.423 98.0878 518.51 98.2472C518.597 98.4017 518.718 98.5104 518.872 98.5732C519.032 98.6359 519.215 98.6673 519.423 98.6673C519.568 98.6673 519.713 98.6553 519.857 98.6311C520.002 98.6021 520.113 98.5804 520.191 98.5659L520.676 100.862C520.521 100.911 520.304 100.966 520.024 101.029C519.744 101.097 519.403 101.138 519.003 101.152C518.259 101.181 517.607 101.082 517.047 100.855C516.491 100.628 516.059 100.276 515.75 99.7974C515.441 99.3193 515.289 98.7156 515.294 97.9864V87.2068ZM522.483 101V89.8727H525.475V91.8142H525.591C525.794 91.1236 526.135 90.602 526.613 90.2494C527.091 89.892 527.641 89.7134 528.264 89.7134C528.419 89.7134 528.586 89.723 528.764 89.7423C528.943 89.7616 529.1 89.7882 529.235 89.822V92.5604C529.09 92.5169 528.89 92.4783 528.634 92.4445C528.378 92.4107 528.144 92.3938 527.931 92.3938C527.477 92.3938 527.072 92.4928 526.714 92.6908C526.362 92.8839 526.081 93.1544 525.874 93.5021C525.671 93.8499 525.57 94.2507 525.57 94.7047V101H522.483ZM533.685 101.21C532.975 101.21 532.342 101.087 531.787 100.841C531.232 100.589 530.792 100.22 530.469 99.7322C530.15 99.2396 529.99 98.6263 529.99 97.8922C529.99 97.274 530.104 96.7548 530.331 96.3347C530.558 95.9145 530.867 95.5764 531.258 95.3205C531.649 95.0645 532.094 94.8713 532.591 94.7409C533.093 94.6105 533.62 94.5188 534.17 94.4656C534.818 94.398 535.339 94.3352 535.735 94.2773C536.131 94.2145 536.419 94.1227 536.597 94.002C536.776 93.8812 536.865 93.7026 536.865 93.4659V93.4224C536.865 92.9636 536.72 92.6087 536.431 92.3575C536.146 92.1064 535.74 91.9808 535.214 91.9808C534.658 91.9808 534.216 92.104 533.888 92.3503C533.559 92.5918 533.342 92.896 533.236 93.2631L530.382 93.0313C530.526 92.3551 530.811 91.7707 531.236 91.2781C531.661 90.7807 532.21 90.3991 532.881 90.1335C533.557 89.8631 534.339 89.7278 535.228 89.7278C535.846 89.7278 536.438 89.8003 537.003 89.9452C537.573 90.0901 538.077 90.3146 538.517 90.6189C538.961 90.9232 539.311 91.3143 539.567 91.7925C539.823 92.2658 539.951 92.8332 539.951 93.4949V101H537.025V99.457H536.938C536.759 99.8047 536.52 100.111 536.221 100.377C535.921 100.638 535.561 100.843 535.141 100.993C534.721 101.138 534.236 101.21 533.685 101.21ZM534.569 99.0803C535.023 99.0803 535.424 98.9909 535.771 98.8122C536.119 98.6287 536.392 98.3824 536.59 98.0733C536.788 97.7642 536.887 97.4141 536.887 97.0229V95.842C536.79 95.9048 536.658 95.9628 536.489 96.0159C536.324 96.0642 536.138 96.1101 535.931 96.1536C535.723 96.1922 535.515 96.2284 535.308 96.2622C535.1 96.2912 534.912 96.3178 534.743 96.3419C534.38 96.395 534.064 96.4795 533.794 96.5955C533.523 96.7114 533.313 96.8683 533.163 97.0663C533.014 97.2595 532.939 97.501 532.939 97.7908C532.939 98.2109 533.091 98.5321 533.395 98.7543C533.704 98.9716 534.096 99.0803 534.569 99.0803ZM548.264 89.8727V92.1909H541.563V89.8727H548.264ZM543.085 87.2068H546.171V97.5807C546.171 97.8656 546.214 98.0878 546.301 98.2472C546.388 98.4017 546.509 98.5104 546.663 98.5732C546.823 98.6359 547.006 98.6673 547.214 98.6673C547.359 98.6673 547.504 98.6553 547.648 98.6311C547.793 98.6021 547.904 98.5804 547.982 98.5659L548.467 100.862C548.312 100.911 548.095 100.966 547.815 101.029C547.535 101.097 547.194 101.138 546.794 101.152C546.05 101.181 545.398 101.082 544.838 100.855C544.282 100.628 543.85 100.276 543.541 99.7974C543.232 99.3193 543.08 98.7156 543.085 97.9864V87.2068ZM550.275 101V89.8727H553.361V101H550.275ZM551.825 88.4384C551.366 88.4384 550.972 88.2862 550.644 87.982C550.32 87.6729 550.159 87.3034 550.159 86.8736C550.159 86.4486 550.32 86.0839 550.644 85.7797C550.972 85.4706 551.366 85.3161 551.825 85.3161C552.284 85.3161 552.675 85.4706 552.998 85.7797C553.327 86.0839 553.491 86.4486 553.491 86.8736C553.491 87.3034 553.327 87.6729 552.998 87.982C552.675 88.2862 552.284 88.4384 551.825 88.4384ZM560.86 101.217C559.735 101.217 558.762 100.978 557.941 100.5C557.125 100.017 556.494 99.3459 556.05 98.4862C555.606 97.6217 555.384 96.6196 555.384 95.4798C555.384 94.3304 555.606 93.3259 556.05 92.4662C556.494 91.6017 557.125 90.9304 557.941 90.4523C558.762 89.9693 559.735 89.7278 560.86 89.7278C561.986 89.7278 562.956 89.9693 563.772 90.4523C564.594 90.9304 565.226 91.6017 565.67 92.4662C566.115 93.3259 566.337 94.3304 566.337 95.4798C566.337 96.6196 566.115 97.6217 565.67 98.4862C565.226 99.3459 564.594 100.017 563.772 100.5C562.956 100.978 561.986 101.217 560.86 101.217ZM560.875 98.8267C561.387 98.8267 561.814 98.6818 562.157 98.392C562.5 98.0974 562.758 97.6966 562.932 97.1895C563.111 96.6824 563.2 96.1053 563.2 95.4581C563.2 94.8109 563.111 94.2338 562.932 93.7267C562.758 93.2196 562.5 92.8187 562.157 92.5241C561.814 92.2295 561.387 92.0822 560.875 92.0822C560.358 92.0822 559.923 92.2295 559.571 92.5241C559.223 92.8187 558.96 93.2196 558.781 93.7267C558.607 94.2338 558.52 94.8109 558.52 95.4581C558.52 96.1053 558.607 96.6824 558.781 97.1895C558.96 97.6966 559.223 98.0974 559.571 98.392C559.923 98.6818 560.358 98.8267 560.875 98.8267ZM571.43 94.567V101H568.344V89.8727H571.285V91.8359H571.415C571.662 91.1888 572.074 90.6768 572.654 90.3001C573.234 89.9186 573.936 89.7278 574.762 89.7278C575.535 89.7278 576.209 89.8969 576.783 90.2349C577.358 90.573 577.805 91.056 578.123 91.6838C578.442 92.3068 578.602 93.0506 578.602 93.9151V101H575.516V94.4656C575.52 93.7847 575.346 93.2534 574.994 92.8719C574.641 92.4855 574.156 92.2923 573.538 92.2923C573.122 92.2923 572.755 92.3817 572.437 92.5604C572.123 92.7391 571.876 92.9999 571.698 93.3428C571.524 93.6808 571.435 94.0889 571.43 94.567Z" fill="black"/>
<path d="M458.5 142C458.5 137.858 461.858 134.5 466 134.5H1099C1103.14 134.5 1106.5 137.858 1106.5 142V168C1106.5 172.142 1103.14 175.5 1099 175.5H466C461.858 175.5 458.5 172.142 458.5 168V142Z" fill="white"/>
<path d="M458.5 142C458.5 137.858 461.858 134.5 466 134.5H1099C1103.14 134.5 1106.5 137.858 1106.5 142V168C1106.5 172.142 1103.14 175.5 1099 175.5H466C461.858 175.5 458.5 172.142 458.5 168V142Z" stroke="#E5E7EB"/>
<path d="M472.651 160H471.358L475.097 149.818H476.369L480.108 160H478.815L475.773 151.429H475.693L472.651 160ZM473.128 156.023H478.338V157.116H473.128V156.023ZM484.418 160.159C483.782 160.159 483.22 159.998 482.733 159.677C482.246 159.352 481.865 158.895 481.589 158.305C481.314 157.711 481.177 157.01 481.177 156.202C481.177 155.4 481.314 154.704 481.589 154.114C481.865 153.524 482.247 153.068 482.738 152.746C483.228 152.425 483.795 152.264 484.438 152.264C484.935 152.264 485.328 152.347 485.616 152.513C485.908 152.675 486.13 152.861 486.283 153.07C486.438 153.275 486.559 153.444 486.646 153.577H486.745V149.818H487.918V160H486.785V158.827H486.646C486.559 158.966 486.437 159.142 486.278 159.354C486.119 159.562 485.892 159.75 485.597 159.915C485.302 160.078 484.909 160.159 484.418 160.159ZM484.577 159.105C485.048 159.105 485.446 158.982 485.771 158.737C486.095 158.489 486.342 158.146 486.511 157.708C486.68 157.267 486.765 156.759 486.765 156.182C486.765 155.612 486.682 155.113 486.516 154.685C486.351 154.254 486.105 153.92 485.781 153.681C485.456 153.439 485.055 153.318 484.577 153.318C484.08 153.318 483.666 153.446 483.335 153.701C483.006 153.953 482.759 154.296 482.594 154.73C482.431 155.161 482.35 155.645 482.35 156.182C482.35 156.725 482.433 157.219 482.599 157.663C482.768 158.104 483.016 158.455 483.344 158.717C483.676 158.976 484.087 159.105 484.577 159.105ZM493.114 160.159C492.477 160.159 491.915 159.998 491.428 159.677C490.941 159.352 490.56 158.895 490.285 158.305C490.01 157.711 489.872 157.01 489.872 156.202C489.872 155.4 490.01 154.704 490.285 154.114C490.56 153.524 490.943 153.068 491.433 152.746C491.924 152.425 492.491 152.264 493.134 152.264C493.631 152.264 494.023 152.347 494.312 152.513C494.603 152.675 494.826 152.861 494.978 153.07C495.134 153.275 495.255 153.444 495.341 153.577H495.44V149.818H496.614V160H495.48V158.827H495.341C495.255 158.966 495.132 159.142 494.973 159.354C494.814 159.562 494.587 159.75 494.292 159.915C493.997 160.078 493.604 160.159 493.114 160.159ZM493.273 159.105C493.743 159.105 494.141 158.982 494.466 158.737C494.791 158.489 495.038 158.146 495.207 157.708C495.376 157.267 495.46 156.759 495.46 156.182C495.46 155.612 495.377 155.113 495.212 154.685C495.046 154.254 494.801 153.92 494.476 153.681C494.151 153.439 493.75 153.318 493.273 153.318C492.776 153.318 492.361 153.446 492.03 153.701C491.702 153.953 491.455 154.296 491.289 154.73C491.127 155.161 491.045 155.645 491.045 156.182C491.045 156.725 491.128 157.219 491.294 157.663C491.463 158.104 491.712 158.455 492.04 158.717C492.371 158.976 492.782 159.105 493.273 159.105ZM504.036 155.406V160H502.863V152.364H503.996V153.557H504.096C504.275 153.169 504.547 152.857 504.911 152.622C505.276 152.384 505.746 152.264 506.323 152.264C506.84 152.264 507.293 152.37 507.68 152.582C508.068 152.791 508.37 153.109 508.585 153.537C508.801 153.961 508.908 154.498 508.908 155.148V160H507.735V155.227C507.735 154.627 507.579 154.16 507.268 153.825C506.956 153.487 506.529 153.318 505.985 153.318C505.611 153.318 505.276 153.399 504.981 153.562C504.689 153.724 504.459 153.961 504.29 154.273C504.121 154.584 504.036 154.962 504.036 155.406ZM514.254 160.159C513.518 160.159 512.884 159.997 512.35 159.672C511.82 159.344 511.41 158.886 511.122 158.3C510.837 157.71 510.694 157.024 510.694 156.241C510.694 155.459 510.837 154.77 511.122 154.173C511.41 153.573 511.811 153.106 512.325 152.771C512.842 152.433 513.445 152.264 514.135 152.264C514.532 152.264 514.925 152.33 515.313 152.463C515.701 152.596 516.054 152.811 516.372 153.109C516.69 153.404 516.944 153.795 517.133 154.283C517.322 154.77 517.416 155.37 517.416 156.082V156.58H511.53V155.565H516.223C516.223 155.134 516.137 154.75 515.964 154.412C515.795 154.074 515.553 153.807 515.238 153.612C514.927 153.416 514.559 153.318 514.135 153.318C513.667 153.318 513.263 153.434 512.922 153.666C512.584 153.895 512.323 154.193 512.141 154.561C511.959 154.929 511.868 155.323 511.868 155.744V156.42C511.868 156.997 511.967 157.486 512.166 157.887C512.368 158.285 512.648 158.588 513.006 158.797C513.364 159.002 513.78 159.105 514.254 159.105C514.562 159.105 514.841 159.062 515.089 158.976C515.341 158.886 515.558 158.754 515.741 158.578C515.923 158.399 516.064 158.177 516.163 157.912L517.297 158.23C517.177 158.615 516.977 158.953 516.695 159.244C516.413 159.533 516.065 159.758 515.651 159.92C515.237 160.08 514.771 160.159 514.254 160.159ZM520.931 160L518.604 152.364H519.837L521.488 158.21H521.567L523.198 152.364H524.451L526.062 158.19H526.141L527.792 152.364H529.025L526.698 160H525.545L523.874 154.134H523.755L522.084 160H520.931ZM537.834 152.364V153.358H533.877V152.364H537.834ZM535.03 150.534H536.204V157.812C536.204 158.144 536.252 158.393 536.348 158.558C536.447 158.721 536.573 158.83 536.726 158.886C536.881 158.939 537.046 158.966 537.218 158.966C537.347 158.966 537.453 158.959 537.536 158.946C537.619 158.929 537.685 158.916 537.735 158.906L537.974 159.96C537.894 159.99 537.783 160.02 537.64 160.05C537.498 160.083 537.317 160.099 537.099 160.099C536.767 160.099 536.442 160.028 536.124 159.886C535.809 159.743 535.547 159.526 535.339 159.234C535.133 158.943 535.03 158.575 535.03 158.131V150.534ZM541.846 160.179C541.363 160.179 540.923 160.088 540.529 159.906C540.135 159.72 539.821 159.453 539.589 159.105C539.357 158.754 539.241 158.33 539.241 157.832C539.241 157.395 539.327 157.04 539.5 156.768C539.672 156.493 539.903 156.278 540.191 156.122C540.479 155.966 540.797 155.85 541.145 155.774C541.497 155.695 541.85 155.632 542.204 155.585C542.668 155.526 543.045 155.481 543.333 155.451C543.625 155.418 543.837 155.363 543.969 155.287C544.105 155.211 544.173 155.078 544.173 154.889V154.849C544.173 154.359 544.039 153.978 543.77 153.706C543.505 153.434 543.103 153.298 542.562 153.298C542.002 153.298 541.563 153.421 541.245 153.666C540.927 153.911 540.703 154.173 540.574 154.452L539.46 154.054C539.659 153.59 539.924 153.229 540.256 152.97C540.59 152.708 540.955 152.526 541.349 152.423C541.747 152.317 542.138 152.264 542.523 152.264C542.768 152.264 543.05 152.294 543.368 152.354C543.689 152.41 543.999 152.528 544.297 152.707C544.599 152.886 544.849 153.156 545.048 153.517C545.247 153.878 545.346 154.362 545.346 154.969V160H544.173V158.966H544.113C544.034 159.132 543.901 159.309 543.716 159.498C543.53 159.687 543.283 159.848 542.975 159.98C542.667 160.113 542.291 160.179 541.846 160.179ZM542.025 159.125C542.489 159.125 542.881 159.034 543.199 158.852C543.52 158.669 543.762 158.434 543.925 158.146C544.09 157.857 544.173 157.554 544.173 157.236V156.162C544.123 156.222 544.014 156.276 543.845 156.326C543.679 156.372 543.487 156.414 543.268 156.45C543.053 156.483 542.842 156.513 542.637 156.54C542.435 156.563 542.271 156.583 542.145 156.599C541.84 156.639 541.555 156.704 541.29 156.793C541.028 156.879 540.816 157.01 540.653 157.186C540.494 157.358 540.415 157.594 540.415 157.892C540.415 158.3 540.565 158.608 540.867 158.817C541.172 159.022 541.558 159.125 542.025 159.125ZM552.897 154.074L551.843 154.372C551.777 154.196 551.679 154.026 551.55 153.86C551.424 153.691 551.251 153.552 551.033 153.442C550.814 153.333 550.534 153.278 550.192 153.278C549.725 153.278 549.336 153.386 549.024 153.602C548.716 153.814 548.562 154.084 548.562 154.412C548.562 154.704 548.668 154.934 548.88 155.103C549.092 155.272 549.424 155.413 549.874 155.526L551.008 155.804C551.691 155.97 552.199 156.223 552.534 156.565C552.869 156.903 553.036 157.339 553.036 157.872C553.036 158.31 552.91 158.701 552.658 159.045C552.41 159.39 552.062 159.662 551.614 159.861C551.167 160.06 550.647 160.159 550.053 160.159C549.274 160.159 548.63 159.99 548.119 159.652C547.609 159.314 547.286 158.82 547.15 158.17L548.263 157.892C548.37 158.303 548.57 158.611 548.865 158.817C549.163 159.022 549.553 159.125 550.033 159.125C550.58 159.125 551.014 159.009 551.336 158.777C551.661 158.542 551.823 158.26 551.823 157.932C551.823 157.667 551.73 157.445 551.545 157.266C551.359 157.083 551.074 156.947 550.69 156.858L549.417 156.56C548.718 156.394 548.204 156.137 547.876 155.789C547.551 155.438 547.388 154.999 547.388 154.472C547.388 154.041 547.509 153.66 547.751 153.328C547.997 152.997 548.33 152.737 548.751 152.548C549.175 152.359 549.656 152.264 550.192 152.264C550.948 152.264 551.541 152.43 551.972 152.761C552.406 153.093 552.715 153.53 552.897 154.074ZM555.896 157.216L555.876 155.764H556.115L559.456 152.364H560.907L557.348 155.963H557.248L555.896 157.216ZM554.802 160V149.818H555.976V160H554.802ZM559.655 160L556.672 156.222L557.507 155.406L561.146 160H559.655Z" fill="#928B8B"/>
<path d="M458.5 196C458.5 191.858 461.858 188.5 466 188.5H1099C1103.14 188.5 1106.5 191.858 1106.5 196V222C1106.5 226.142 1103.14 229.5 1099 229.5H466C461.858 229.5 458.5 226.142 458.5 222V196Z" fill="white"/>
<path d="M458.5 196C458.5 191.858 461.858 188.5 466 188.5H1099C1103.14 188.5 1106.5 191.858 1106.5 196V222C1106.5 226.142 1103.14 229.5 1099 229.5H466C461.858 229.5 458.5 226.142 458.5 222V196Z" stroke="#E5E7EB"/>
<path d="M474.378 213.5V203.609H475.576V212.437H480.173V213.5H474.378ZM484.983 213.655C484.269 213.655 483.652 213.497 483.134 213.181C482.619 212.862 482.221 212.418 481.941 211.848C481.664 211.275 481.526 210.609 481.526 209.849C481.526 209.089 481.664 208.419 481.941 207.84C482.221 207.257 482.611 206.803 483.11 206.478C483.612 206.149 484.198 205.985 484.868 205.985C485.254 205.985 485.635 206.05 486.012 206.178C486.389 206.307 486.732 206.516 487.041 206.806C487.35 207.093 487.596 207.473 487.78 207.946C487.963 208.419 488.055 209.002 488.055 209.694V210.177H482.337V209.192H486.896C486.896 208.773 486.812 208.4 486.645 208.072C486.481 207.743 486.246 207.484 485.94 207.294C485.637 207.104 485.28 207.009 484.868 207.009C484.414 207.009 484.021 207.122 483.689 207.347C483.361 207.569 483.108 207.859 482.931 208.216C482.754 208.574 482.665 208.957 482.665 209.366V210.023C482.665 210.583 482.762 211.058 482.955 211.447C483.151 211.834 483.424 212.128 483.771 212.331C484.119 212.531 484.523 212.631 484.983 212.631C485.283 212.631 485.553 212.589 485.795 212.505C486.04 212.418 486.25 212.289 486.428 212.119C486.605 211.945 486.741 211.729 486.838 211.472L487.939 211.781C487.823 212.154 487.628 212.483 487.355 212.766C487.081 213.046 486.743 213.265 486.341 213.423C485.938 213.577 485.486 213.655 484.983 213.655ZM493.015 206.082V207.048H489.171V206.082H493.015ZM490.291 204.305H491.431V211.375C491.431 211.697 491.478 211.938 491.571 212.099C491.668 212.257 491.79 212.363 491.938 212.418C492.089 212.47 492.249 212.495 492.416 212.495C492.542 212.495 492.645 212.489 492.725 212.476C492.806 212.46 492.87 212.447 492.918 212.437L493.15 213.461C493.073 213.49 492.965 213.519 492.827 213.548C492.688 213.58 492.513 213.597 492.3 213.597C491.978 213.597 491.663 213.527 491.354 213.389C491.048 213.25 490.793 213.04 490.591 212.756C490.391 212.473 490.291 212.116 490.291 211.684V204.305ZM497.956 206.082V207.048H494.111V206.082H497.956ZM495.232 204.305H496.372V211.375C496.372 211.697 496.418 211.938 496.512 212.099C496.608 212.257 496.731 212.363 496.879 212.418C497.03 212.47 497.189 212.495 497.357 212.495C497.482 212.495 497.585 212.489 497.666 212.476C497.746 212.46 497.811 212.447 497.859 212.437L498.091 213.461C498.014 213.49 497.906 213.519 497.767 213.548C497.629 213.58 497.453 213.597 497.241 213.597C496.919 213.597 496.603 213.527 496.294 213.389C495.988 213.25 495.734 213.04 495.531 212.756C495.332 212.473 495.232 212.116 495.232 211.684V204.305ZM502.701 213.655C501.986 213.655 501.369 213.497 500.851 213.181C500.336 212.862 499.938 212.418 499.658 211.848C499.381 211.275 499.243 210.609 499.243 209.849C499.243 209.089 499.381 208.419 499.658 207.84C499.938 207.257 500.328 206.803 500.827 206.478C501.329 206.149 501.915 205.985 502.585 205.985C502.971 205.985 503.353 206.05 503.729 206.178C504.106 206.307 504.449 206.516 504.758 206.806C505.067 207.093 505.313 207.473 505.497 207.946C505.681 208.419 505.772 209.002 505.772 209.694V210.177H500.054V209.192H504.613C504.613 208.773 504.529 208.4 504.362 208.072C504.198 207.743 503.963 207.484 503.657 207.294C503.354 207.104 502.997 207.009 502.585 207.009C502.131 207.009 501.738 207.122 501.406 207.347C501.078 207.569 500.825 207.859 500.648 208.216C500.471 208.574 500.382 208.957 500.382 209.366V210.023C500.382 210.583 500.479 211.058 500.672 211.447C500.869 211.834 501.141 212.128 501.488 212.331C501.836 212.531 502.24 212.631 502.701 212.631C503 212.631 503.271 212.589 503.512 212.505C503.757 212.418 503.968 212.289 504.145 212.119C504.322 211.945 504.459 211.729 504.555 211.472L505.656 211.781C505.54 212.154 505.346 212.483 505.072 212.766C504.798 213.046 504.46 213.265 504.058 213.423C503.655 213.577 503.203 213.655 502.701 213.655ZM507.506 213.5V206.082H508.607V207.202H508.684C508.82 206.835 509.064 206.537 509.419 206.309C509.773 206.08 510.172 205.966 510.616 205.966C510.7 205.966 510.805 205.968 510.93 205.971C511.056 205.974 511.151 205.979 511.215 205.985V207.144C511.177 207.135 511.088 207.12 510.95 207.101C510.814 207.078 510.671 207.067 510.52 207.067C510.159 207.067 509.837 207.143 509.554 207.294C509.274 207.442 509.052 207.648 508.887 207.912C508.726 208.173 508.646 208.471 508.646 208.806V213.5H507.506Z" fill="black"/>
<path d="M1079 206.5L1084 211.5L1089 206.5" stroke="black" stroke-width="2" stroke-linecap="round" stroke-linejoin="round"/>
<path d="M458 250C458 245.582 461.582 242 466 242H1099C1103.42 242 1107 245.582 1107 250V274C1107 278.418 1103.42 282 1099 282H466C461.582 282 458 278.418 458 274V250Z" fill="#3B82F6"/>
<path d="M754.207 266.5H752.952L756.583 256.609H757.82L761.452 266.5H760.196L757.24 258.174H757.163L754.207 266.5ZM754.671 262.636H759.732V263.699H754.671V262.636ZM765.639 266.655C765.021 266.655 764.475 266.498 764.002 266.186C763.528 265.871 763.158 265.426 762.891 264.853C762.624 264.277 762.49 263.596 762.49 262.81C762.49 262.031 762.624 261.355 762.891 260.782C763.158 260.209 763.53 259.766 764.006 259.454C764.483 259.141 765.034 258.985 765.658 258.985C766.141 258.985 766.523 259.066 766.803 259.227C767.086 259.384 767.302 259.565 767.45 259.768C767.601 259.967 767.719 260.131 767.802 260.26H767.899V256.609H769.039V266.5H767.938V265.36H767.802C767.719 265.495 767.6 265.666 767.445 265.872C767.291 266.075 767.07 266.257 766.783 266.418C766.497 266.576 766.115 266.655 765.639 266.655ZM765.793 265.631C766.251 265.631 766.637 265.512 766.952 265.273C767.268 265.032 767.508 264.699 767.672 264.274C767.836 263.845 767.918 263.351 767.918 262.791C767.918 262.237 767.838 261.753 767.677 261.337C767.516 260.919 767.278 260.593 766.962 260.362C766.647 260.127 766.257 260.009 765.793 260.009C765.31 260.009 764.908 260.133 764.586 260.381C764.267 260.626 764.027 260.959 763.866 261.381C763.709 261.799 763.63 262.269 763.63 262.791C763.63 263.319 763.71 263.799 763.871 264.23C764.035 264.658 764.277 265 764.596 265.254C764.918 265.505 765.317 265.631 765.793 265.631ZM774.086 266.655C773.468 266.655 772.922 266.498 772.449 266.186C771.975 265.871 771.605 265.426 771.338 264.853C771.07 264.277 770.937 263.596 770.937 262.81C770.937 262.031 771.07 261.355 771.338 260.782C771.605 260.209 771.977 259.766 772.453 259.454C772.93 259.141 773.48 258.985 774.105 258.985C774.588 258.985 774.97 259.066 775.25 259.227C775.533 259.384 775.749 259.565 775.897 259.768C776.048 259.967 776.166 260.131 776.249 260.26H776.346V256.609H777.486V266.5H776.385V265.36H776.249C776.166 265.495 776.047 265.666 775.892 265.872C775.737 266.075 775.517 266.257 775.23 266.418C774.944 266.576 774.562 266.655 774.086 266.655ZM774.24 265.631C774.697 265.631 775.084 265.512 775.399 265.273C775.715 265.032 775.955 264.699 776.119 264.274C776.283 263.845 776.365 263.351 776.365 262.791C776.365 262.237 776.285 261.753 776.124 261.337C775.963 260.919 775.725 260.593 775.409 260.362C775.093 260.127 774.704 260.009 774.24 260.009C773.757 260.009 773.355 260.133 773.033 260.381C772.714 260.626 772.474 260.959 772.313 261.381C772.156 261.799 772.077 262.269 772.077 262.791C772.077 263.319 772.157 263.799 772.318 264.23C772.482 264.658 772.724 265 773.043 265.254C773.365 265.505 773.764 265.631 774.24 265.631ZM783.17 257.672V256.609H790.588V257.672H787.478V266.5H786.28V257.672H783.17ZM793.456 266.674C792.986 266.674 792.559 266.585 792.176 266.408C791.793 266.228 791.489 265.969 791.263 265.631C791.038 265.289 790.925 264.877 790.925 264.394C790.925 263.969 791.009 263.625 791.176 263.361C791.344 263.094 791.567 262.884 791.848 262.733C792.128 262.582 792.437 262.469 792.775 262.395C793.116 262.318 793.459 262.256 793.804 262.211C794.254 262.153 794.62 262.11 794.9 262.081C795.183 262.049 795.389 261.996 795.518 261.922C795.65 261.848 795.716 261.719 795.716 261.535V261.497C795.716 261.02 795.586 260.65 795.325 260.386C795.067 260.122 794.676 259.99 794.151 259.99C793.607 259.99 793.181 260.109 792.871 260.347C792.562 260.585 792.345 260.84 792.219 261.11L791.138 260.724C791.331 260.273 791.588 259.922 791.91 259.671C792.236 259.417 792.59 259.24 792.973 259.14C793.359 259.037 793.739 258.985 794.113 258.985C794.351 258.985 794.625 259.014 794.934 259.072C795.246 259.127 795.547 259.241 795.837 259.415C796.13 259.589 796.373 259.851 796.566 260.202C796.759 260.553 796.856 261.023 796.856 261.612V266.5H795.716V265.495H795.658C795.581 265.656 795.452 265.829 795.272 266.012C795.091 266.196 794.852 266.352 794.552 266.481C794.253 266.609 793.887 266.674 793.456 266.674ZM793.63 265.65C794.08 265.65 794.46 265.561 794.769 265.384C795.082 265.207 795.317 264.979 795.475 264.699C795.636 264.418 795.716 264.124 795.716 263.815V262.772C795.668 262.83 795.562 262.883 795.397 262.931C795.236 262.976 795.05 263.016 794.837 263.052C794.628 263.084 794.423 263.113 794.224 263.139C794.027 263.161 793.868 263.18 793.746 263.197C793.449 263.235 793.172 263.298 792.915 263.385C792.661 263.469 792.454 263.596 792.297 263.766C792.142 263.934 792.065 264.162 792.065 264.452C792.065 264.848 792.211 265.148 792.504 265.351C792.801 265.55 793.176 265.65 793.63 265.65ZM804.191 260.743L803.167 261.033C803.102 260.862 803.007 260.696 802.882 260.536C802.76 260.371 802.592 260.236 802.38 260.13C802.167 260.024 801.895 259.97 801.563 259.97C801.109 259.97 800.731 260.075 800.428 260.284C800.129 260.49 799.979 260.753 799.979 261.072C799.979 261.355 800.082 261.579 800.288 261.743C800.494 261.907 800.816 262.044 801.254 262.153L802.355 262.424C803.019 262.585 803.513 262.831 803.838 263.163C804.163 263.491 804.326 263.915 804.326 264.433C804.326 264.858 804.204 265.238 803.959 265.573C803.717 265.908 803.379 266.172 802.945 266.365C802.51 266.558 802.005 266.655 801.428 266.655C800.672 266.655 800.045 266.49 799.55 266.162C799.054 265.834 798.74 265.354 798.608 264.723L799.69 264.452C799.793 264.852 799.987 265.151 800.274 265.351C800.564 265.55 800.942 265.65 801.409 265.65C801.94 265.65 802.362 265.537 802.674 265.312C802.99 265.083 803.148 264.81 803.148 264.491C803.148 264.233 803.057 264.018 802.877 263.844C802.697 263.667 802.42 263.535 802.046 263.448L800.81 263.158C800.131 262.997 799.632 262.747 799.313 262.409C798.997 262.068 798.84 261.641 798.84 261.13C798.84 260.711 798.957 260.341 799.192 260.019C799.43 259.697 799.754 259.444 800.163 259.261C800.575 259.077 801.042 258.985 801.563 258.985C802.298 258.985 802.874 259.146 803.292 259.468C803.714 259.79 804.014 260.215 804.191 260.743ZM807.104 263.795L807.085 262.385H807.317L810.562 259.082H811.972L808.514 262.578H808.418L807.104 263.795ZM806.042 266.5V256.609H807.181V266.5H806.042ZM810.755 266.5L807.858 262.83L808.669 262.037L812.204 266.5H810.755Z" fill="white"/>
</g>
<defs>
<filter id="filter0_dd_618_303" x="-13" y="-2" width="312" height="856" filterUnits="userSpaceOnUse" color-interpolation-filters="sRGB">
<feFlood flood-opacity="0" result="BackgroundImageFix"/>
<feColorMatrix in="SourceAlpha" type="matrix" values="0 0 0 0 0 0 0 0 0 0 0 0 0 0 0 0 0 0 127 0" result="hardAlpha"/>
<feMorphology radius="3" operator="erode" in="SourceAlpha" result="effect1_dropShadow_618_303"/>
<feOffset dy="10"/>
<feGaussianBlur stdDeviation="7.5"/>
<feColorMatrix type="matrix" values="0 0 0 0 0 0 0 0 0 0 0 0 0 0 0 0 0 0 0.1 0"/>
<feBlend mode="normal" in2="BackgroundImageFix" result="effect1_dropShadow_618_303"/>
<feColorMatrix in="SourceAlpha" type="matrix" values="0 0 0 0 0 0 0 0 0 0 0 0 0 0 0 0 0 0 127 0" result="hardAlpha"/>
<feMorphology radius="4" operator="erode" in="SourceAlpha" result="effect2_dropShadow_618_303"/>
<feOffset dy="4"/>
<feGaussianBlur stdDeviation="3"/>
<feColorMatrix type="matrix" values="0 0 0 0 0 0 0 0 0 0 0 0 0 0 0 0 0 0 0.1 0"/>
<feBlend mode="normal" in2="effect1_dropShadow_618_303" result="effect2_dropShadow_618_303"/>
<feBlend mode="normal" in="SourceGraphic" in2="effect2_dropShadow_618_303" result="shape"/>
</filter>
<clipPath id="clip0_618_303">
<rect width="1280" height="832" fill="white"/>
</clipPath>
</defs>
</svg>
